<?xml version="1.0" encoding="iso-8859-1"?>
<!-- Generator: Adobe Illustrator 22.1.0, SVG Export Plug-In . SVG Version: 6.00 Build 0)  -->
<svg version="1.1" id="_x36_" xmlns="http://www.w3.org/2000/svg" xmlns:xlink="http://www.w3.org/1999/xlink" x="0px" y="0px"
	 viewBox="0 0 512 512" style="enable-background:new 0 0 512 512;" xml:space="preserve">
<g>
	<path style="fill:#CB8200;" d="M72.356,495.239c-7.46,3.427,9.945,3.712,21.927,4.247c11.982,0.536,26.568,1.847,29.498-4.247
		c2.93-6.094,11.654-5.74,16.059-3.87c4.404,1.871,7.555,9.616,14.118,8.117c6.563-1.499,3.044-5.642,12.603,0.499
		c9.559,6.141,11.537,2.384,10.113,0.917c-1.425-1.467,4.584-7.007,13.544,0.465c8.96,7.472,16.761,6.975,20.321,4.511
		s9.199-1.569,15.328-1.569c6.129,0,25.473,2.357,22.372-3.407c-3.101-5.764-8.801-16.955-8.62-22.484
		c0.181-5.529,6.046-14.83,0.295-22.086c-5.751-7.256-7.101-10.956-11.673-16.542c-4.572-5.586-9.429-12.589-15.854-23.314
		c-6.426-10.724-15.167-29.147-15.491-33.361c-0.324-4.214-10.068-51.43,3.568-72.383c13.636-20.952,36.376-23.479,41.702-24.071
		c5.326-0.593,45.467-7.446,53.805-5.495c8.337,1.952,40.208-1.594,44.088-9.544c1.94-3.975,4.504-12.384,8.545-18.994
		c4.041-6.609,9.559-11.419,9.559-11.419s27.268-14.236,39.905-15.192c12.638-0.956,16.725-6.134,21.838-11.538
		c5.113-5.404,3.078-10.547,3.078-10.547s-7.428,10.17-12.87,12.404c-5.442,2.234-13.346,0.594-13.346,0.594l3.428-18.513
		c0,0-8.91,4.438-7.944,6.563c0.966,2.125-1.999,11.223-1.999,11.223s-8.816,0.589-16.323,3.272
		c-7.508,2.682-18.523,6.406-21.299,8.724c-2.776,2.318-7.579,5.787-7.579,5.787s-1.607-8.462-1.509-15.784
		c0.098-7.322,2.217-15.01,4.01-17.597s21.992-21.934,21.992-21.934l-9.409-7.077l-12.253,12.375c0,0-10.139,9.14-10.713,10.107
		c-0.573,0.967-3.062,12.612-6.589,16.31c-3.527,3.698-4.652,10.045-4.545,13.7c0.108,3.655,1.225,9.571,0.514,12.986
		c-0.71,3.415-4.051,13.453-7.389,17.236c-3.337,3.783-8.688,9.082-16.381,10.291c-7.693,1.209-41.586,1.962-45.532,1.521
		c-3.945-0.441-6.103-5.514-11.885-7.01c-5.782-1.496-14.483-2.4-18.379-0.999c-3.895,1.401-10.938,5.362-10.938,5.362
		s2.281-7.492,1.45-12.97c-0.831-5.478-4.496-14.079-1.873-19.412c2.623-5.333,5.164-11.986,9.184-14.754
		c4.021-2.768,10.687-7.529,8.761-12.407c-1.926-4.877-5.513-15.706-6.515-17.904c-1.002-2.198-2.86-16.714-3.328-20.126
		c-0.468-3.412,6.094-11.254,9.393-14.33c3.299-3.076,9.046-9.721,9.046-9.721l-2.215-13.658c0,0-5.989,0.516-6.381,1.821
		c-0.392,1.306-1.814,5.767-3.635,8.802c-1.821,3.035-2.362,6.931-5.126,6.956c-2.765,0.025-4.041,4.598-4.041,4.598
		s-3.992,2.329-5.785,4.326c-1.793,1.996-2.954,4.759-2.65,6.58c0.304,1.821,0.127,16.098,0.127,16.098l-3.191,9.809
		c0,0-0.315,6.012-3.173,6.449c-2.857,0.436-5.931,2.636-8.346-3.354c-2.415-5.99-6.975-14.576-8.553-16.587
		c-1.578-2.012-3.934-6.769-3.934-6.769l-15.729-14.427c0,0-6.806-7.018-9.849-8.508c-3.043-1.49-9.281-3.242-16.949-4.592
		c-7.669-1.35-9.595,1.243-11.907-1.974c-2.313-3.216-5.04-6.562-5.107-9.89c-0.066-3.329,3.547-15.793,6.534-17.732
		s-4.858-3.659-4.858-3.659s-1.973,11.149-4.348,12.96c-2.375,1.811-3.188,4.39-4.4,6.96c-1.212,2.57-1.455,8.191-1.455,8.191
		s-10.86-4.116-13.407-5.99c-2.547-1.875-8.175-5.791-12.944-11.274c-4.769-5.484-6.893-9.835-14.48-10.846
		c-7.587-1.011-7.587,9.935-3.945,12.96c3.642,3.025,6.732,10.668,11.712,12.461c4.98,1.793,10.398,9.622,13.607,12.233
		c3.209,2.611,12.997,5.483,18.422,6.323c5.425,0.84,16.486,5.801,21.274,9.239c4.789,3.438,11.048,14.688,15.658,20.596
		c4.609,5.908,5.867,10.082,2.962,18.465c-2.905,8.384-16.842,61.847-19.585,65.313c-2.744,3.467-8.941,0.956-10.748,2.391
		c-1.806,1.435-3.841,3.978-7.189,7.431c-3.348,3.453-10.03,13.516-11.7,14.809c-1.67,1.293-1.708,3.893-1.672,8.968
		c0.036,5.075,2.465,10.808,2.464,13.404c-0.001,2.596,2.427,6.238,2.427,6.238l-1.991,5.422c0,0-3.621,28.78-2.484,35.807
		c1.137,7.027,0.839,17.595,4.934,27.031c4.094,9.435,14.413,23.7,18.055,33.108c3.642,9.409,9.129,19.727,7.903,30.046
		c-1.226,10.319-9.117,14.265-14.884,19.424c-5.766,5.16-18.211,13.315-22.87,13.658c-4.659,0.342-9.706,1.836-12.696,4.406
		c-2.991,2.569-5.407,5.118-5.407,5.118S71.929,492.549,72.356,495.239z"/>
	<path d="M204.652,114.701c-4.808-0.024-10.874-5.266-17.004-1.244c-6.131,4.021-15.425,10.697-27.432,9.145
		c-12.008-1.552-29.679-7.24-32.4-7.925c-2.72-0.685-9.348,2.262-15.21,2.886c-5.863,0.624-6.387,3.571-10.582,0
		c-4.196-3.571-4.686,3.26-11.977,2.016c-7.289-1.243-19.12-9.255-21.925-9.781s-9.103,3.662-13.817,0
		c-4.714-3.662-4.208-3.465-6.917-3.71c-2.71-0.245-18.58-1.637-20.835-10.76c-2.256-9.123-1.382-10.67-4.203-14.39
		c-2.821-3.719,0.776-1.699-6.859-10.203c-7.635-8.504-1.038-7.608-8.379-13.376c-7.341-5.768-8.297-3.993-4.148-12.222
		c4.148-8.23,7.693-6.518,12.546-7.202c4.852-0.683,3.945,1.723,11.146-2.536c7.2-4.259,6.252-3.982,13.493-3.211
		c7.241,0.772,10.9-5.188,10.9-5.188s16.292-9.328,25.442-10.605s21.445-0.519,26.812,1.247c5.368,1.767,22.757,9.138,29.623,10.601
		c6.866,1.462,11.122-1.287,16.57-3.118c5.448-1.831,19.847-4.663,25.195-7.483c5.347-2.82,14.692-14.969,20.273-12.754
		c5.581,2.215,11.883,9.341,17.672,10.151c5.79,0.81,15.303,0.535,20.141,3.259c4.839,2.723,18.352,12.702,22.505,17.604
		c4.154,4.902,2.034,4.42,6.111,5.619c4.077,1.198,16.713,3.465,20.712,7.274c4,3.809,8.39,7.791,8.783,12.213
		c0.393,4.422-0.478,4.555-1.331,10.154c-0.853,5.598,0.039,7.696,1.428,10.317c1.389,2.622,7.795,3.298,7.652,6.365
		c-0.143,3.066,0.243,7.046,0.243,7.046s12.777,13.499,17.58,19.81c4.804,6.311,9.76,12.622,7.843,17.051
		c-1.917,4.428-8.805,10.418-8.61,13.113c0.194,2.693,3.753,4.458-1.299,7.119c-5.052,2.662-10.197,3.351-12.07,2.902
		c-1.873-0.449-6.232,0.05-13.72-2.675c-7.488-2.726-9.214-5.357-11.917-5.615c-2.703-0.258-8.009-1.146-10.533-0.209
		c0,0-20.052,2.44-22.326,0c-2.273-2.439-6.058-8.169-8.555-15.066c-2.498-6.897-0.494-12.15-6.066-14.3
		c-5.572-2.15-16.574-2.344-16.574-2.344L204.652,114.701z"/>
	<path d="M385.438,194.077c3.325-1.158,1.859,5.069,4.255,6.528c2.396,1.459-1.615,9.23,7.075,9.782
		c8.689,0.552,8.579-2.374,11.069,1.267c2.49,3.64,2.907,7.729,8.444,7.82c5.538,0.093,5.234-1.719,9.066-1.693
		c0,0,1.84-4.244,6.43-1.445c4.59,2.798,12.896,7.448,18.512,5.32c5.617-2.128,7.224-2.203,11.122-5.452
		c3.898-3.249,6.654-5.158,10.448-5.203c3.793-0.045,21.356,0.351,23.762-0.614c2.405-0.964,9.081-5.571,10.469-6.454
		c1.387-0.885,5.478-3.224,3.121-6.571c-2.356-3.345-1.498-2.592-3.587-6.064c-2.089-3.47-4.844-8.419-7.112-8.37
		c-2.267,0.049-7.899,0-7.899,0s-25.549-8.585-28.708-10.337c-3.158-1.752-6.924-2.43-8.074-6.69
		c-1.151-4.258-5.702-13.756-8.811-14.655c-3.108-0.899-14.324-2.332-14.324-2.332s-8.879-3.565-8.877-5.719
		c0.002-2.154-17.705-8.829-22.478-10.223c-4.774-1.394-19.601,1.002-21.431,2.534c-1.83,1.531-10.05,11.722-16.683,14.864
		c-6.633,3.142-13.431,6.048-15.591,5.983c-2.16-0.065-13.652,1.148-21.31,3.003c-7.658,1.855-9.766,2.061-9.836,6.546
		c-0.07,4.486,0.861,9.388,5.664,10.987c4.803,1.598,16.036,4.106,21.217,3.063c5.181-1.042,9.575-5.851,14.552-3.223
		c4.977,2.629,11.282,5.371,13.577,8.683c2.295,3.313-0.603,0.374,4.417,2.947c5.02,2.573,12.351,2.939,12.351,2.939
		L385.438,194.077z"/>
	<path d="M139.53,258.192c-4.327-0.816-4.71,1.232-10.077-4.899c-5.367-6.133-11.07-5.309-13.725-6.207
		c-2.654-0.899-16.226,2.96-24.662,4.917s-20.095-1.58-20.095-1.58s-2.079-6.939-7.193-9.474
		c-5.114-2.535-34.826-1.093-40.588-2.809c-5.762-1.715-17.946-9.168-19.737-11.734c-1.791-2.566,0.669-15.712,6.888-19.988
		c6.219-4.278,15.688-1.272,22.523-2.487c6.836-1.217,27.687-7.649,27.687-7.649s8.804-7.381,13.61-9.001
		c4.806-1.623,26.282-4.018,32.106-3.115c5.824,0.902,14.038-0.486,16.738,1.457c2.7,1.944,3.025,3.948,4.473,2.96
		c1.449-0.988,7.987-4.076,12.05-4.416c4.062-0.341,11.353,4.166,14.148,6.536c2.796,2.37,5.51,1.822,5.078,3.374
		c-0.431,1.552,0.061,11.463-1.92,13.164c-1.982,1.702-2.388,3.799-2.191,7.143c0.197,3.346,3.15,12.231,1.861,16.574
		c-1.29,4.342-3.452,14.326-7.013,17.82c-3.56,3.494-7.95,10.33-7.95,10.33L139.53,258.192z"/>
	<path d="M224.636,219.839c0.798,0.093,1.619,0.187,2.447,0.292c4.692,0.596,9.601,1.521,11.904,4.206
		c2.709,3.158,5.693,9.57,9.832,9.649c4.14,0.079,9.832,3.584,15.403,5.005c5.571,1.42,8.915,3.077,6.341,7.786
		c-2.574,4.708-8.85,8.276-9.735,7.398c-0.884-0.878,4.027-0.703-7.318-0.318c-11.344,0.387-14.15-0.079-23.989-0.564
		c-9.838-0.485-9.838-0.485-9.838-0.485s-0.473-8.823-2.604-14.252"/>
	<path d="M105.385,295.195c0.053-1.191,0.076-2.193,0-3.481c-0.026-1.298-0.191-2.64,0.242-4.481
		c0.237-0.923,0.794-1.901,1.468-2.578c0.665-0.679,1.342-1.136,1.888-1.533c0.556-0.399,1.023-0.755,1.417-1.141
		c0.445-0.437,0.896-0.926,1.329-1.432c1.702-2.002,3.457-4.6,5.611-6.717c1.001-1.007,1.996-2.006,2.974-2.991
		c0.462-0.478,0.902-0.954,1.317-1.434c0.435-0.526,0.865-1.045,1.291-1.559c0.947-1.129,2.208-2.222,3.548-2.788
		c1.336-0.579,2.466-0.746,3.53-0.866c2.215-0.163,3.706,0.232,4.82,0.462c2.187,0.526,2.839,0.858,2.045,0.861
		c-0.792,0.004-2.051,0.26-4.043,0.598c-1.012,0.186-2.09,0.406-3.369,0.913c-1.315,0.492-2.466,1.119-3.637,2.525
		c-0.304,0.344-0.581,0.717-0.871,1.102c-0.312,0.416-0.627,0.822-0.949,1.205c-0.641,0.773-1.291,1.485-1.92,2.154
		c-1.262,1.336-2.419,2.523-3.36,3.668c-1.848,2.281-3.204,4.543-4.489,6.14c-0.614,0.791-1.11,1.299-1.655,1.722
		c-0.519,0.401-1.032,0.684-1.655,1.036c-0.624,0.371-1.311,0.703-1.643,1.372c-0.189,0.325-0.306,1.012-0.326,1.966
		c-0.028,0.949,0.082,2.113,0.119,3.646c0.004,2.879-0.103,5.146-0.294,6.856c-0.096,0.853-0.142,1.358-0.088,1.643
		c0.057,0.339,0.357,0.758,0.553,1.079c0.877,1.308,0.376,1.655-1.055,0.737c-0.349-0.246-0.772-0.553-1.118-1.073
		c-0.334-0.528-0.484-1.138-0.582-1.652c-0.168-0.98-0.341-1.978-0.495-2.874C105.647,296.539,105.385,295.195,105.385,295.195z"/>
	<path d="M120.646,299.897c-0.188,1.595-1.391,1.47-2.153,0.517c-0.498-0.621-0.059-2.491-0.052-3.276
		c0.036-3.444-0.32-4.603,2.183-7.167c2.561-2.626,5.142-5.277,7.8-7.8c2.648-2.515,5.654-5.058,7.664-2.128
		c1.484,2.162,2.248,6.234-0.885,8.498c-3.133,2.264-5.449,4.326-7.387,8.109C125.879,300.435,120.646,299.897,120.646,299.897z"/>
	<path d="M142.527,254.127c0.756-1.109,1.38-2.212,2.169-3.611c0.791-1.354,1.666-2.69,2.554-4.027
		c1.778-2.671,3.594-5.359,4.759-8.278c0.598-1.485,1.1-3.066,1.573-4.684c0.432-1.602,1.047-3.403,1.127-4.551
		c0.266-2.599-1.355-5.648-1.771-9.362c-0.102-0.88-0.062-1.956-0.05-2.499c0.008-0.669-0.02-1.368-0.036-2.059
		c-0.033-1.385-0.04-2.752,0.227-4.086c0.129-0.629,0.339-1.397,0.76-2.021c0.406-0.624,0.868-1.006,1.172-1.279
		c0.61-0.528,0.908-0.868,1.102-1.358c0.193-0.495,0.329-1.196,0.65-1.69c0.315-0.488,0.674-0.708,0.889-0.818
		c0.454-0.186,0.449-0.082,0.076,0.258c-0.397,0.352-0.609,1.042-0.528,1.82c0.101,0.756-0.031,1.935-0.811,2.999
		c-0.357,0.531-0.657,1-0.741,1.543c-0.089,0.55-0.091,1.305-0.019,2.104c0.064,0.813,0.196,1.719,0.319,2.748
		c0.061,0.516,0.12,1.062,0.156,1.654c0.021,0.543,0.043,1.105,0.065,1.691c0.163,2.155,1.021,4.228,1.597,6.434
		c0.289,1.102,0.495,2.252,0.519,3.401c0.053,1.131-0.184,2.324-0.41,3.254c-0.867,3.601-1.651,6.657-2.51,8.934
		c-0.873,2.265-1.342,2.798-2.412,4.288c-0.534,0.722-1.238,1.674-2.318,3.133c-0.521,0.724-1.126,1.568-1.788,2.582
		c-0.693,1.033-1.304,2.148-2.172,3.716c-0.861,1.516-1.749,2.822-2.589,3.931c-0.419,0.555-0.828,1.061-1.219,1.528
		c-0.364,0.425-0.617,0.765-0.913,1.193c-1.095,1.676-2.217,3.058-3.253,3.527c-1.048,0.476-1.554,0.22-1.511,0.005
		c0.023-0.261,0.445-0.54,0.981-1.201c0.544-0.674,0.963-1.659,1.371-2.729c0.208-0.536,0.418-1.097,0.686-1.667
		c0.273-0.528,0.541-1.043,0.793-1.531C141.965,255.574,142.527,254.127,142.527,254.127z"/>
	<path d="M120.676,152.839c-2.102-0.689-4.493-1.278-7.047-1.821c-1.286-0.254-2.606-0.516-3.949-0.782
		c-0.676-0.126-1.359-0.252-2.044-0.38c-0.667-0.14-0.842-0.246-1.256-0.362c-0.363-0.113-0.727-0.225-1.081-0.37
		c-2.878-1.046-5.605-2.663-7.941-4.562c-2.35-1.895-4.336-4.019-6.088-6.082c-0.869-1.036-1.643-2.009-2.331-2.912
		c-0.144-0.193-0.425-0.542-0.368-0.51l-0.078-0.09l-0.297-0.228c-0.402-0.303-0.785-0.591-1.149-0.865
		c-1.487-1.101-2.689-2.035-3.529-2.805c-1.689-1.546-1.963-2.297-1.321-1.808c0.658,0.475,1.866,0.819,3.766,1.501
		c0.951,0.347,2.082,0.775,3.414,1.436c0.373,0.199,0.577,0.27,1.164,0.651c0.308,0.315,0.626,0.644,0.959,0.985
		c0.593,0.614,1.217,1.292,1.878,2.026c2.631,2.956,5.215,5.34,7.655,6.928c2.443,1.586,4.673,2.405,6.353,2.787
		c0.396,0.095,0.722,0.173,1.006,0.24l0.323,0.052l0.418,0.089c0.535,0.124,1.016,0.28,1.722,0.493
		c1.411,0.451,3.74,1.024,9.243,2.414c5.514,1.441,8.545,3.229,9.75,4.306c1.213,1.094,0.711,1.476-0.799,1.004
		c-1.525-0.459-3.62-0.844-5.333-1.049C122.003,152.915,120.676,152.839,120.676,152.839z"/>
	<path d="M156.726,189.399c0.033-0.947,0-1.923-0.19-2.874c-0.1-0.473-0.217-0.948-0.388-1.405c-0.067-0.238-0.184-0.453-0.28-0.68
		l-0.086-0.194l-0.203-0.293c-1.384-2.001-2.842-4.109-4.326-6.254c-2.948-4.271-6.013-8.561-9.031-12.195
		c-2.98-3.671-5.314-6.023-6.643-7.557c-1.375-1.464-1.688-2.132-1.085-1.712c0.593,0.428,1.727,0.706,3.405,1.584
		c1.667,0.871,3.951,2.314,6.467,5.107c4.984,5.607,8.377,10.47,10.63,13.084c1.105,1.324,1.296,1.785,1.928,2.973
		c0.315,0.593,0.738,1.374,1.45,2.52l0.278,0.45l0.165,0.259l0.247,0.452c0.193,0.473,0.394,0.904,0.549,1.436
		c0.34,1.033,0.611,2.263,0.726,3.667c0.203,2.812-0.201,4.899-0.509,6.459c-0.337,1.561-0.663,2.616-0.956,3.293
		c-0.553,1.351-1.111,1.134-1.22-0.376c-0.096-1.495-0.229-3.503-0.435-5.067C157.025,190.502,156.726,189.399,156.726,189.399z"/>
	<path d="M174.211,152.149c2.844,3.174,7.814,6.674,11.287,10.33c3.488,3.652,3.942,6.159,3.384,5.626
		c-0.55-0.535-2.645-0.472-5.43-3.005c-2.788-2.534-5.27-4.288-6.819-5.206c-1.549-0.922-0.503-0.939-4.39-4.539
		c-1.941-1.807-2.768-3.267-2.919-4.16c-0.147-0.885,0.367-1.146,1.006-0.748C171.628,151.253,174.211,152.149,174.211,152.149z"/>
	<path d="M137.445,136.027c1.644,0.556,3.363,0.978,5.332,1.206c1.964,0.246,4.114,0.35,6.381,0.591
		c4.623,0.472,9.307,1.874,13.116,4.132c3.817,2.262,5.78,4.815,6.689,6.361c0.898,1.587,0.9,2.224,0.507,1.745
		c-0.408-0.474-1.287-0.968-2.65-1.733c-1.324-0.75-3.156-1.788-5.766-3.267c-2.606-1.443-5.202-2.268-7.439-2.745
		c-2.253-0.497-4.082-0.556-5.517-0.542c-1.421,0.021-1.823-0.102-2.943-0.354c-0.562-0.128-1.306-0.277-2.474-0.482
		c-1.151-0.208-2.797-0.468-4.984-1.034c-4.323-1.191-6.509-2.35-7.574-3.053c-1.039-0.724-0.766-1.241,0.516-1.158
		c1.274,0.075,2.984,0.175,4.376,0.257C136.403,136.022,137.445,136.027,137.445,136.027z"/>
	<path d="M101.758,122.066c1.319,1.8,3.452,3.527,5.91,4.924c2.439,1.436,5.198,2.556,7.692,3.722
		c5.034,2.262,6.843,4.251,6.009,4.021c-0.803-0.276-2.88,0.674-6.934-0.822c-4.033-1.519-7.294-2.863-9.259-3.703
		c-0.993-0.396-1.175-0.689-1.775-1.263c-0.565-0.628-1.599-1.505-3.795-3.769c-1.086-1.15-1.764-2.228-2.181-3.112
		c-0.012-0.338-0.431-0.814-0.718-1.13c-0.337-0.347-0.455-0.699-0.301-0.877c0.141-0.178,0.343-0.304,0.817-0.267
		c0.473,0.043,1.103,0.162,1.721,0.529c0.172,0.092,0.301,0.203,0.459,0.348l0.316,0.216c0.21,0.137,0.415,0.271,0.608,0.398
		C101.104,121.778,101.758,122.066,101.758,122.066z"/>
	<path d="M112.606,381.896c3.986,6.176,8.747,13.51,12.12,19.108c0.805,1.399,3.296,5.363,5.974,11.045
		c2.589,5.516,6.143,12.509,8.159,20.294c1.012,3.876,1.532,7.979,1.279,11.917c-0.237,3.934-1.212,7.644-2.676,10.76
		c-3.053,6.097-6.891,9.728-8.31,11.372c-2.952,3.245-6.745,6.131-11.794,9.261c-1.289,0.784-2.547,1.583-4.082,2.437
		c-1.55,0.896-3.243,1.652-5.034,2.396c-3.577,1.471-7.621,2.673-11.741,4.431c-2.939,1.301-6.167,2.81-8.669,5.119
		c-0.306,0.294-0.649,0.557-0.936,0.871l-1.464,1.672l-0.471,0.54l-0.122,0.125l-0.18,0.003l-0.362,0.009l-1.434,0.031l-0.865,0.041
		c-0.204,0.004-0.412,0.026-0.622,0.05c-1.665,0.16-3.389,0.59-5.051,1.062c-1.71,0.521-3.321,1.009-4.773,1.451
		c-0.76,0.216-1.477,0.419-2.147,0.61c-0.755,0.187-1.456,0.359-2.093,0.517c-0.235,0.041-0.431,0.003-0.698,0.014l-0.424-0.016
		c-0.244-0.012-0.474-0.024-0.688-0.034c-0.431-0.022-0.801-0.041-1.104-0.057c-0.605-0.033-0.937-0.052-0.937-0.052
		c-0.064-0.132,0.343-0.292,1.138-0.471c0.397-0.091,0.892-0.186,1.473-0.287l0.459-0.076c0.231-0.041,0.432-0.022,0.637-0.113
		c0.342-0.144,0.704-0.299,1.083-0.461c2.843-1.205,6.426-3.314,10.74-4.742c1.065-0.337,2.26-0.622,3.353-0.773l0.704-0.077
		l0.263-0.196l0.211-0.292c0.255-0.342,0.596-0.863,0.999-1.31c1.536-1.832,3.431-3.309,5.31-4.508
		c3.806-2.384,7.529-3.594,9.873-4.398c2.368-0.777,5.201-1.638,8.059-2.807c1.437-0.574,2.843-1.274,4.221-2.037
		c1.411-0.825,2.826-1.657,4.189-2.508c2.734-1.693,5.284-3.436,7.375-5.079c2.1-1.633,3.724-3.171,4.808-4.24
		c1.05-1.09,3.425-3.565,5.479-7.295c2.109-3.627,3.274-8.74,2.972-13.785c-0.278-5.055-1.848-9.945-3.4-13.721
		c-1.55-3.788-3.014-6.544-3.556-7.506c-1.083-1.935-2.939-5.256-5.184-9.273c-2.296-3.915-5.304-8.381-8.342-12.968
		c-3.041-4.584-4.766-8.341-5.642-11.243c-0.893-2.901-0.957-4.947-0.87-6.32c0.087-1.373,0.792-0.962,1.462-0.246
		C111.932,380.867,112.606,381.896,112.606,381.896z"/>
	<path d="M111.332,334.483c0.639,1.93,0.139,3.814-0.146,5.239c-0.175,0.694-0.993,4.018-1.385,7.518
		c-0.419,3.491-0.443,7.112-0.05,8.066c0.815,1.909,0.3,4.151,1.174,8.501c0.641,3.132-1.028,8.389-1.028,8.389
		c-1.052,0.115-3.327-7.037-3.375-9.359c-0.046-2.319-0.161-6.516-0.116-7.992c0.018-0.737-0.127-3.278-0.177-5.791
		c-0.082-2.511-0.042-4.997-0.162-5.55c-0.26-1.105-0.235-3.771,0.003-6.466c0.243-2.719,2.228-3.462,3.518-3.666
		C110.9,333.17,111.332,334.483,111.332,334.483z"/>
	<path d="M255.337,507.374c-0.595-1.248-1.066-2.592-1.544-3.94c-0.454-1.337-0.932-2.674-1.045-3.85
		c-0.146-1.174-0.041-2.209,0.195-2.915c0.233-0.73,0.589-1.017,0.589-1.017h-0.001c-0.067-0.196-0.138-0.406-0.212-0.624
		c-0.238-0.782-0.499-1.638-0.775-2.544c-0.836-2.449-2.173-4.613-3.074-6.188c-0.455-0.796-0.803-1.464-1.03-2.016
		c-0.236-0.586-0.321-0.866-0.462-1.607c-0.249-1.289-0.357-2.609-0.383-3.652c-0.039-1.035-0.165-2.991-0.167-5.684
		c-0.026-2.69,0.107-6.085,0.041-9.909c-0.077-1.93-0.057-3.847-0.571-6.396c-0.251-1.222-0.716-2.554-1.363-3.747
		c-0.646-1.2-1.446-2.21-2.174-3.008c-1.482-1.592-2.656-2.592-3.627-3.651c-0.933-0.976-1.54-1.837-2.116-2.836
		c-1.128-1.901-2.381-4.567-4.462-7.613c-1.03-1.516-2.44-3.092-3.773-4.309c-1.349-1.256-2.685-2.324-3.882-3.343
		c-1.191-1.012-2.259-1.973-3.074-2.922c-0.851-0.973-1.334-1.774-1.791-2.838c-0.87-2.08-1.303-4.538-1.715-6.586
		c-0.501-2.908-2.116-5.249-3.549-6.188c-1.446-0.992-2.571-0.842-3.04-0.265c-0.516,0.622-0.439,1.626-0.019,2.884
		c0.441,1.263,1.226,2.786,2.483,4.957c1.109,1.77,1.935,4.691,3.49,7.425c1.531,2.726,4.322,5.043,6.953,7.46
		c1.317,1.212,2.594,2.484,3.639,3.845c1.047,1.366,1.824,2.755,2.456,4.008c1.244,2.518,2.066,4.465,2.427,5.395
		c0.172,0.467,0.569,1.293,1.243,2.329c0.673,1.047,1.687,2.236,2.843,3.53c1.146,1.299,2.483,2.692,3.148,4.414
		c0.694,1.724,0.674,3.749,0.562,5.849c-0.24,4.17-0.902,8.352-1.265,11.732c-0.401,3.374-0.494,5.969-0.676,6.758
		c-0.176,0.787-0.223,2.109-0.023,3.761c0.065,0.416,0.132,0.851,0.201,1.301c0.105,0.485,0.227,0.983,0.385,1.471
		c0.311,0.98,0.723,1.93,1.148,2.817c0.859,1.776,1.712,3.324,2.092,4.658c0.194,0.664,0.282,1.27,0.289,1.808
		c0.064,0.761,0.096,1.483,0.091,2.145c0,0.34,0.046,0.751,0.086,1.134c0.052,0.406,0.203,0.969,0.339,1.451
		c0.316,0.985,0.747,1.968,1.373,2.798c1.211,1.714,3.092,2.76,4.85,3.207c0.885,0.229,1.742,0.352,2.516,0.416
		c0.511,0.033,0.962,0.06,1.335,0.082C254.954,507.372,255.337,507.374,255.337,507.374z"/>
	<path d="M238.892,285.875c8.418-3.133,18.979-3.298,26.249-3.732c0.458-0.024,1.128-0.062,1.984-0.108l0.171-0.015
		c0.198-0.052,0.405-0.105,0.621-0.162c0.474-0.141,0.99-0.296,1.54-0.461c1.136-0.351,2.499-0.82,4.189-1.201
		c0.846-0.186,1.793-0.344,2.822-0.387c0.86-0.007,1.753-0.014,2.674-0.022c7.172-0.095,16.017,0.744,24.746,0.98
		c4.368,0.105,8.725,0.017,12.828-0.413c4.116-0.383,7.924-1.299,11.246-2.377c0.823-0.294,1.622-0.579,2.396-0.854
		c0.757-0.313,1.469-0.667,2.163-0.98c1.409-0.59,2.595-1.344,3.677-1.977c0.263-0.156,0.517-0.308,0.765-0.455
		c0.184-0.095,0.235-0.158,0.349-0.292c0.363-0.397,0.7-0.765,1.008-1.102c0.636-0.713,1.111-1.306,1.435-1.762
		c0.647-0.913,1.25-1.831,1.78-2.784l0.38-0.727c0.118-0.223,0.275-0.574,0.252-0.552l0.006-0.052l0.013-0.081l0.125-0.505
		c0.085-0.339,0.17-0.681,0.258-1.026c0.739-2.755,1.743-5.712,3.18-8.936c1.437-3.221,3.321-6.72,6.038-10.385
		c2.712-3.656,6.301-7.475,11.41-10.734c3.598-2.19,7.853-4.142,12.516-5.557c4.63-1.416,9.54-2.167,13.927-2.26
		c1.098-0.005,2.16-0.014,3.181,0.043c0.44,0.019,0.871,0.038,1.293,0.057c0.325,0.009,0.634-0.005,0.928-0.041
		c1.165-0.134,2.166-0.686,3.02-1.346c0.843-0.672,1.502-1.384,1.949-1.882c0.445-0.516,0.689-0.798,0.689-0.798
		c0.161,0.036,0.039,0.543-0.359,1.373c-0.406,0.818-1.064,1.994-2.209,3.104c-1.133,1.134-2.914,1.961-5.218,2.057
		c-2.281,0.229-4.746,0.619-7.246,1.207c-5.011,1.155-10.118,3.152-14.458,5.359c-2.16,1.105-4.209,2.207-5.858,3.281
		c-0.832,0.522-1.585,1.055-2.258,1.578c-0.696,0.486-1.276,0.999-1.807,1.427c-2.108,1.727-4.413,4.105-6.487,6.951
		c-2.078,2.843-3.893,6.153-5.352,9.486c-0.733,1.665-1.36,3.346-1.918,4.971c-0.258,0.82-0.535,1.614-0.759,2.399
		c-0.113,0.394-0.224,0.78-0.333,1.162l-0.206,0.722l-0.352,0.682c-1.637,2.965-3.617,4.931-4.878,6.241
		c-0.34,0.342-0.784,0.791-1.318,1.329c-0.786,0.662-1.501,0.914-2.331,1.439c-1.636,1.004-3.773,1.98-6.186,2.982
		c-4.857,1.965-11.094,3.314-17.271,3.843c-6.182,0.564-12.277,0.469-17.104,0.399c-4.83-0.081-8.426-0.115-9.696-0.028
		c-1.27,0.057-2.994,0.134-5.06,0.227c-1.025,0.028-2.15,0.122-3.341,0.193c-0.574,0.036-1.165,0.074-1.772,0.113
		c-0.494,0.045-0.945,0.122-1.481,0.256c-1.054,0.261-2.24,0.691-3.59,1.196c-0.676,0.249-1.392,0.514-2.164,0.768
		c-0.421,0.134-0.658,0.222-1.474,0.437l-1.426,0.132c-3.02,0.27-6.155,0.55-9.29,0.832c-6.208,0.538-10.602,0.598-13.896,0.485
		c-3.279-0.103-5.479-0.464-7.013-0.797c-1.542-0.349-1.017-1.081-0.05-1.74C237.499,286.384,238.892,285.875,238.892,285.875z"/>
	<path d="M202.108,391.195c-4.047-3.97-6.228-10.485-7.144-15.033c-0.276-1.143-0.877-4.44-1.351-8.793
		c-0.492-4.354-0.79-9.744-1.204-15.081l-0.171-1.995l-0.036-0.43c-0.007-0.074-0.009-0.069-0.06-0.311
		c-0.079-0.373-0.144-0.742-0.201-1.112c-0.227-1.476-0.298-2.925-0.28-4.328c0.032-2.781,0.492-5.483,1.007-7.664
		c0.906-4.476,1.978-7.893,2.228-9.4c0.246-1.512,0.736-3.02,1.265-4.673c0.65-1.607,1.298-3.386,2.284-5.278
		c1.881-3.821,4.44-8.398,8.646-13.984c3.013-4.065,8.283-8.314,13.016-10.782c1.143-0.682,2.324-1.141,3.343-1.619
		c1.017-0.481,1.956-0.837,2.754-1.097c1.577-0.534,2.531-0.859,2.531-0.859c0.416,0.562-4.369,3.482-8.965,7.771
		c-4.67,4.242-8.897,9.866-10.917,12.566c-2.118,2.64-4.697,6.66-6.639,10.667c-1.955,3.996-3.413,7.888-4.043,9.945
		c-0.363,1.012-1.014,3.319-1.645,6.286c-0.282,1.492-0.669,3.144-0.827,4.808c-0.17,1.681-0.198,3.446-0.021,5.153
		c0.089,0.853,0.226,1.69,0.419,2.485l0.188,0.741l0.1,0.763c0.061,0.447,0.121,0.889,0.181,1.325
		c0.229,1.736,0.445,3.378,0.637,4.837c0.382,2.912,0.718,5.069,0.908,5.827c0.773,3.018,1.875,10.514,4.405,17.221
		c1.255,3.345,1.968,5.779,2.326,7.747c0.319,1.982,0.333,3.441,0.175,4.565c-0.143,1.117-0.846,1.088-1.543,0.736
		C202.781,391.848,202.108,391.195,202.108,391.195z"/>
	<path d="M284.14,264.096c6.194,0.077,12.889,0.321,19.625-1.212c3.333-0.768,6.658-1.934,9.575-3.823
		c2.916-1.88,5.422-4.419,7.296-7.458c1.968-3.211,3.811-6.526,4.916-9.947c0.55-1.712,0.899-3.455,1.033-5.206
		c0.113-1.733,0.003-3.599-0.134-5.495c-0.259-3.807-0.756-7.716-0.256-11.861c0.119-1.036,0.352-2.081,0.682-3.147
		c0.388-1.14,0.935-2.111,1.492-2.958c1.118-1.697,2.283-3.07,3.035-4.414c1.482-2.814,2.396-6.122,3.433-9.044
		c1.005-2.994,2.463-5.847,4.238-7.925c1.781-2.104,3.688-3.584,5.341-4.791c1.647-1.162,3.08-2.173,4.3-3.034
		c2.374-1.73,3.799-3.013,4.498-3.622c0.713-0.596,0.73-0.475,0.017,0.34c-0.693,0.831-1.586,1.847-2.799,3.145
		c-1.223,1.281-2.857,2.765-4.855,4.59c-1.97,1.839-4.315,4.067-6.008,7.41c-1.74,3.279-2.395,7.879-4.578,13.113
		c-1.147,2.783-3.145,4.813-4.24,6.848c-1.097,1.882-1.243,4.361-1.289,6.65c0,4.692,0.847,9.149,0.792,13.56
		c-0.082,4.481-1.457,8.408-2.919,11.597c-0.737,1.607-1.505,3.06-2.236,4.392c-0.694,1.317-1.482,2.559-2.227,3.723
		c-1.581,2.236-2.846,3.515-4.08,4.563c-1.25,1.035-2.464,1.891-4.351,2.901c-1.872,1.026-4.469,2.174-8.558,3.19
		c-4.087,0.981-9.71,1.674-17.391,1.6c-30.442,0-36.239-1.841-27.54-2.209C269.643,265.202,284.14,264.096,284.14,264.096z"/>
	<path d="M343.329,218.716c0.131-3.47,0.009-7.941,1.418-12.444c1.322-4.486,3.983-8.606,6.837-11.665
		c2.873-3.07,5.251-4.713,6.707-5.629c1.469-0.901,2.087-1.004,1.661-0.571c-0.812,0.89-1.63,3.582-5.58,8.037
		c-3.96,4.498-5.591,8.969-5.926,11.564c-0.172,1.308-0.356,1.638-0.676,2.621c-0.293,0.99-0.802,2.645-0.774,6.815
		c0.07,4.173-0.246,6.788-0.764,7.962c-0.498,1.181-1.051,0.964-1.244-0.239c-0.2-1.205-0.625-2.803-0.993-4.113
		C343.62,219.736,343.329,218.716,343.329,218.716z"/>
	<path d="M360.588,223.359c2.859-0.827,6.125-2.625,9.857-4.213c3.809-1.597,7.902-2.599,11.727-2.876
		c3.806-0.253,6.418,0.203,7.946,0.571c1.528,0.389,1.987,0.756,1.437,0.762c-1.097,0.055-3.307,1.399-8.634,1.918
		c-5.35,0.609-9.354,2.305-11.445,3.573c-2.198,1.277-1.326,0.225-8.553,3.316c-1.848,0.737-3.45,1.109-4.713,1.215l-0.217,0.017
		l-0.072-0.021l-0.192-0.04l-0.429-0.083l-0.464,0.43c-0.638,0.564-1.213,0.62-1.09-0.852c0.014-0.181,0.027-0.368,0.04-0.562
		l0.02-0.308l0.105-0.244c0.382-0.144,0.78-0.296,1.183-0.449c0.533-0.186,0.684-0.323,0.997-0.479
		c0.278-0.146,0.541-0.325,0.791-0.476C359.875,223.93,360.588,223.359,360.588,223.359z"/>
	<path d="M72.666,113.215c1.972,1.546,5.293,2.685,8.551,3.01c0.84,0.087,1.387,0.009,2.678,0.054
		c1.115,0.07,2.161,0.294,3.078,0.523c0.917,0.231,1.719,0.445,2.456,0.577c0.725,0.133,1.387,0.169,2.229,0.185
		c3.222,0.046,5.538-0.016,6.684-0.19c0.562-0.088,0.871-0.173,1.036-0.258c0.201-0.086,0.292-0.085,0.204,0.124
		c-0.114,0.748-2.067,3.338-7.448,3.621c-1.303,0.083-2.765,0.047-3.981-0.191c-1.225-0.214-2.268-0.479-3.163-0.587
		c-0.918-0.12-1.601-0.095-2.348,0.005c-0.956,0.085-1.748,0.094-2.417,0.086c-1.342-0.021-1.695-0.198-2.649-0.581
		c-0.944-0.439-2.53-0.849-6.003-2.724c-1.724-0.993-2.935-2.25-3.58-3.44c-0.604-1.242-0.685-2.275-0.477-2.873
		c0.366-1.189,0.964-0.826,1.249-0.004c0.364,0.876,1.332,1.67,2.226,2.079c0.464,0.205,0.853,0.365,1.181,0.444
		C72.481,113.163,72.666,113.215,72.666,113.215z"/>
	<path d="M31.085,102.142c-0.995-0.701-1.99-1.469-2.962-2.321c-0.486-0.426-0.966-0.872-1.435-1.345
		c-0.48-0.469-0.985-1.049-1.404-1.61c-0.858-1.146-1.578-2.389-2.14-3.776c-0.278-0.695-0.516-1.429-0.675-2.224
		c-0.174-0.828-0.195-1.687-0.174-2.412c1.19-4.973-3.416-8.218-6.91-13.396c-0.869-1.25-1.676-2.966-2.084-4.393
		c-0.444-1.403-0.849-2.738-1.366-3.353c-0.566-0.748-1.545-1.4-2.741-2.017c-1.185-0.618-2.619-1.251-4.007-2.183
		c-1.382-0.897-2.893-2.368-3.54-4.285c-0.168-0.466-0.276-0.938-0.359-1.406c-0.088-0.547-0.09-1.063-0.065-1.51
		c0.057-0.897,0.17-1.542,0.153-1.948c-0.019-0.416-0.038-0.501-0.328-1.093c-0.256-0.513-0.822-1.474-0.947-2.574
		c-0.265-1.743,0.002-3.542,0.627-5.076c1.287-3.092,3.513-5.052,5.651-6.433c2.165-1.366,4.478-2.151,6.658-2.31
		c2.123-0.125,3.865,0.143,5.112,0.099c1.2-0.076,2.396-0.565,3.452-0.94c2.11-0.848,3.88-0.972,4.609-0.706
		c0.737,0.232,0.624,0.294-0.208,0.226c-0.852-0.022-1.879,0.302-3.018,0.963c-1.176,0.609-2.417,1.694-4.568,2.272
		c-2.146,0.44-4.611,0.171-7.089,1.155c-1.258,0.491-2.57,1.212-3.826,2.207C6.248,42.733,5.03,44,4.208,45.563
		c-0.414,0.778-0.696,1.594-0.784,2.411c-0.078,0.406-0.05,0.816-0.044,1.217l0.067,0.6c0.021,0.191,0.056,0.288,0.114,0.455
		c0.196,0.609,0.933,1.494,1.183,2.834c0.209,1.274-0.04,2.298-0.048,3.036c-0.03,0.679,0.139,1.328,0.43,1.926
		c0.285,0.583,0.719,1.079,1.259,1.524c1.094,0.895,2.502,1.534,3.923,2.213c1.427,0.688,2.95,1.477,4.177,2.779
		c0.605,0.624,1.119,1.457,1.438,2.173c0.319,0.701,0.556,1.373,0.769,1.984c0.418,1.229,0.782,2.214,1.243,2.977
		c0.498,0.838,1.069,1.593,1.631,2.28c2.313,2.77,3.159,3.609,4.785,6.426c0.403,0.713,0.84,1.593,1.245,2.738
		c0.205,0.502,0.443,1.416,0.476,2.168c0.06,0.792,0.009,1.575-0.046,2.332c-0.146,1.572-0.158,2.687,0.617,4.461
		c0.363,0.842,0.865,1.738,1.516,2.6c0.619,0.84,1.503,1.666,2.532,2.545c4.136,3.394,8.26,5.288,11.296,6.572
		c3.025,1.162,5.473,1.317,7.004,1.626c3.089,0.515,2.575,1.083-0.7,1.23c-1.634,0.055-3.594,0.082-5.605-0.261
		c-2.031-0.342-3.945-1.005-5.653-1.608C33.601,103.572,31.085,102.142,31.085,102.142z"/>
	<path d="M91.143,8.951c1.352,0.042,3.191,0.052,4.849,0.446c1.673,0.363,3.26,0.951,4.752,1.597
		c1.472,0.629,2.967,1.382,4.282,1.928c1.357,0.543,2.82,0.974,4.362,1.36c1.59,0.392,3.194,0.787,4.813,1.186
		c1.647,0.411,3.409,1.071,4.949,1.611c3.183,1.113,6.418,2.243,9.696,3.389c3.36,1.155,6.513,2.814,9.528,3.113
		c1.517,0.15,2.895-0.039,4.324-0.626c1.452-0.58,2.968-1.555,4.844-2.36c3.758-1.417,6.923-2.207,10.283-3.808
		c3.474-1.465,7.057-2.719,10.73-3.743l2.733-0.725c0.804-0.211,1.602-0.487,2.394-0.805c1.583-0.657,3.14-1.512,4.715-2.446
		c3.142-1.849,6.4-4.12,10.405-5.379c1.986-0.627,4.119-0.951,6.25-0.898c2.537,0.134,4.567,1.207,6.282,2.301
		c3.426,2.218,6.049,5.065,8.883,6.631c2.847,1.665,6.124,2.021,9.756,2.03c0.934,0.01,1.749,0.008,2.662-0.036
		c0.909-0.038,1.876-0.087,2.902-0.061c1.009,0.019,2.157,0.143,3.249,0.462c1.072,0.306,2.014,0.735,2.903,1.178
		c1.767,0.894,3.312,1.91,4.776,2.678c1.691,0.883,3.302,1.875,4.832,2.921c1.53,1.047,2.987,2.141,4.403,3.23
		c1.424,1.126,2.762,2.068,4.256,3.356c2.787,2.507,4.979,5.084,7.101,7.549c0.515,0.671,1.024,1.336,1.529,1.995
		c0.517,0.665,1.002,1.348,1.365,1.758c0.409,0.431,0.409,0.432,1.117,0.689c0.658,0.223,1.429,0.438,2.124,0.638
		c5.755,1.682,11.007,3.218,15.763,4.608c1.363,0.477,2.637,1.435,3.499,2.311c0.914,0.926,1.571,1.634,2.393,2.412
		c1.574,1.513,3.17,3.048,4.372,4.789c2.402,3.54,3.108,7.214,3.053,10.288c-0.156,3.105-1.027,5.517-2.301,7.212
		c-0.698,0.833-1.386,1.29-1.878,1.741c-0.508,0.435-0.836,0.822-1.029,1.157c-0.37,0.674-0.304,1.082-0.377,1.001
		c-0.01-0.056-0.17-0.641,0.38-1.496c0.543-0.854,1.543-1.541,2.393-2.632c0.792-1.137,1.27-2.612,1.536-4.294
		c0.267-1.684,0.229-3.603-0.28-5.645c-0.503-2.033-1.388-4.237-2.962-6.227c-1.555-2.024-3.854-3.704-6.229-5.951
		c-1.145-1.112-2.255-2.018-3.818-2.417c-1.674-0.418-3.424-0.854-5.253-1.311c-3.706-0.952-7.732-1.969-12.103-3.163
		c-0.541-0.166-1.254-0.372-1.926-0.866c-0.649-0.484-1.054-1.007-1.442-1.489c-0.707-0.901-1.429-1.819-2.166-2.755
		c-1.54-1.841-3.29-3.716-5.069-5.545c-0.903-0.909-1.827-1.771-2.784-2.532c-1.024-0.782-2.043-1.559-3.054-2.331
		c-2.03-1.545-4.032-3.022-6.092-4.301c-1.036-0.647-2.054-1.217-3.145-1.781c-1.142-0.602-2.181-1.24-3.213-1.813
		c-1.027-0.575-2.04-1.09-3.042-1.447c-0.997-0.358-1.941-0.489-3.053-0.501c-1.088-0.016-2.228,0.069-3.416,0.111
		c-1.225,0.036-2.332,0.025-3.514-0.002c-2.32-0.059-4.723-0.308-6.983-1.079c-2.258-0.753-4.288-1.992-6.012-3.338
		c-1.711-1.33-3.25-2.666-4.814-3.798c-1.549-1.121-3.145-2.075-4.659-2.403c-0.382-0.101-0.731-0.113-1.108-0.144l-1.277,0.04
		c-0.841,0.083-1.672,0.179-2.477,0.399c-3.242,0.779-6.097,2.576-8.872,4.298c-2.769,1.745-5.566,3.434-8.535,4.487
		c-1.57,0.507-2.852,0.813-4.097,1.184c-1.25,0.368-2.442,0.751-3.575,1.142c-2.267,0.785-4.101,1.506-5.69,2.166
		c-0.791,0.339-1.525,0.652-2.223,0.951c-0.756,0.334-1.488,0.623-2.197,0.881c-1.421,0.517-2.768,0.926-4.19,1.366
		c-0.69,0.222-1.407,0.451-2.173,0.697c-0.666,0.229-1.393,0.562-2.237,0.981c-0.842,0.413-1.802,0.924-2.989,1.403
		c-1.171,0.481-2.667,0.886-4.266,0.954c-3.264,0.165-6.69-1.147-10.211-2.643c-3.568-1.394-7.95-2.875-13.057-4.707
		c-2.418-0.949-5.159-1.535-8.323-2.313c-1.571-0.395-3.236-0.864-4.941-1.554c-1.697-0.719-3.218-1.49-4.863-2.153
		c-1.624-0.66-3.192-1.129-4.741-1.306c-0.756-0.093-1.531-0.086-2.441-0.116c-0.848-0.029-1.685-0.058-2.511-0.087
		c-1.622-0.047-3.151-0.04-4.568,0.141c-1.352,0.172-2.879,0.602-4.424,0.848c-0.782,0.131-1.588,0.211-2.376,0.235
		c-0.839,0.023-1.482-0.03-2.084,0.011c-1.244,0.049-2.399,0.297-3.541,0.679c-1.139,0.378-2.269,0.884-3.41,1.355
		c-1.127,0.45-2.214,0.884-3.262,1.304c-8.055,3.498-12.21,8.568-14.636,11.611c-2.387,3.169-3.242,4.633-3.298,4.155
		c0.012-0.427,0.846-2.802,3.302-6.303c2.451-3.479,5.999-7.137,10.368-9.856c2.138-1.4,4.633-2.413,6.77-3.427
		c2.161-1.07,4.611-2.199,7.146-2.452c0.614-0.07,1.259-0.099,1.817-0.113c0.504-0.013,0.989-0.052,1.464-0.115
		c0.947-0.125,1.863-0.354,2.794-0.595c0.924-0.238,1.842-0.493,2.797-0.659c0.927-0.163,1.781-0.248,2.546-0.302
		c1.534-0.102,2.723-0.098,3.53-0.107C90.704,8.954,91.143,8.951,91.143,8.951z"/>
	<path d="M139.98,116.753c2.061,1.053,4.538,1.775,7.32,2.215c2.776,0.452,5.818,0.642,8.998,0.982
		c1.548,0.153,3.312,0.429,4.761,0.675c1.346,0.212,2.708,0.184,4.08-0.017c2.745-0.401,5.526-1.515,8.317-2.5
		c3.001-1.065,5.446-1.397,7.236-1.997c1.63-0.482,2.975-1.475,4.117-2.051c1.132-0.611,2.009-0.847,2.428-0.876
		c0.424-0.033,0.415,0.071,0.004,0.257c-0.863,0.387-1.681,1.473-3.206,3.143c-0.742,0.829-2,1.784-3.523,2.434
		c-1.52,0.706-3.359,1.246-5.315,1.973c-4.042,1.596-7.967,3.243-11.739,3.409c-1.841,0.15-3.682-0.19-4.903-0.31
		c-1.328-0.135-2.521-0.187-3.542-0.211c-2.046-0.046-2.63-0.189-4.241-0.509c-0.817-0.156-1.892-0.362-3.54-0.677
		c-1.655-0.34-3.938-0.73-7.044-1.865c-3.089-1.173-5.268-2.722-6.757-4.047c-1.492-1.341-2.34-2.472-2.785-3.252
		c-0.871-1.577-0.249-1.718,1.125-0.645c1.386,1.076,3.423,2.224,5.138,2.895C138.622,116.471,139.98,116.753,139.98,116.753z"/>
	<path d="M214.277,112.656c1.656,0.029,3.396,0.06,5.205,0.092c1.863,0.004,3.871,0.053,5.998,0.477
		c1.063,0.224,2.169,0.523,3.287,1.116c0.555,0.302,1.116,0.651,1.63,1.136c0.546,0.453,1.107,1.272,1.349,1.979
		c0.266,0.724,0.346,1.284,0.455,1.661c0.106,0.383,0.169,0.512,0.401,0.922c0.409,0.718,1.091,1.597,1.666,2.738
		c0.143,0.284,0.277,0.586,0.395,0.897l0.278,0.732l0.556,1.449l1.121,2.955c0.367,1.001,0.724,2.017,1.048,3.056l0.462,1.571
		c0.143,0.511,0.256,0.908,0.411,1.356c0.591,1.741,1.5,3.352,2.571,4.948c0.535,0.798,1.107,1.592,1.688,2.393
		c0.304,0.424,0.565,0.784,0.818,1.101c0.269,0.333,0.553,0.658,0.851,0.971c1.599,1.678,3.377,2.937,4.986,3.665
		c0.837,0.369,1.503,0.573,2.32,0.669c0.802,0.1,1.61,0.127,2.381,0.146c1.543,0.027,2.944,0.061,4.077,0.245
		c1.138,0.173,1.998,0.492,2.551,0.772l0.397,0.201l0.002,0.235c0.01,1.186-0.115,1.384-0.272,0.624
		c-0.033-0.14-0.069-0.289-0.128-0.541l-0.025-0.105l-0.091-0.022c-1.22-0.297-3.016-0.05-5.82,0.553
		c-1.42,0.226-3.159,0.684-5.472,0.194c-2.202-0.516-4.489-1.743-6.651-3.714c-1.148-1.018-2.173-2.319-2.963-3.398
		c-0.84-1.116-1.664-2.23-2.396-3.387c-0.737-1.15-1.37-2.349-1.879-3.553c-0.515-1.211-0.838-2.461-1.165-3.436
		c-0.686-2.058-1.468-3.916-2.183-5.595c-0.363-0.844-0.705-1.637-1.024-2.377c-0.291-0.71-0.54-1.063-0.913-1.598
		c-0.73-1.018-1.362-1.811-1.776-3.002c-0.345-1.116-0.345-1.893-0.469-2.171l-0.173-0.279c-0.122-0.146-0.291-0.294-0.496-0.456
		c-0.424-0.314-1.064-0.641-1.965-0.902c-0.895-0.267-2.046-0.467-3.469-0.561c-1.4-0.094-3.155-0.059-5.212-0.074
		c-16.382-0.003-19.495-1.845-14.82-2.212C206.494,113.759,214.277,112.656,214.277,112.656z"/>
	<path d="M199.086,182.965c0.371,0.992,0.737,2.018,1.067,3.133c0.302,1.041,0.593,2.027,0.966,2.947
		c0.368,0.909,0.809,1.717,1.346,2.193c0.516,0.5,1.175,0.766,2.092,0.866c0.859,0.095,2.128,0.017,2.728-0.203
		c0.653-0.242,1.014-0.583,1.361-1.445c0.712-1.726,0.641-4.384,1.47-7.254c0.435-1.485,1.146-2.732,1.635-3.796
		c0.251-0.536,0.449-1.029,0.577-1.494c0.132-0.453,0.189-0.888,0.222-1.458c0.059-1.092-0.028-2.316-0.108-3.619
		c-0.039-0.653-0.077-1.33-0.082-2.045l-0.051-1.841c-0.107-2.491-0.357-5.093-0.206-7.811c0.033-0.678,0.109-1.37,0.211-2.063
		c0.059-0.357,0.114-0.677,0.204-1.067c0.094-0.408,0.225-0.809,0.382-1.199c0.641-1.577,1.77-2.773,2.844-3.638
		c1.091-0.875,2.134-1.49,3.072-2.077c0.956-0.591,1.793-1.091,2.342-1.593c0.573-0.512,1.088-1.202,1.632-1.963
		c0.619-0.879,1.385-1.678,2.174-2.271c0.788-0.598,1.514-0.996,2.114-1.378c0.586-0.365,1.19-0.773,1.53-1.084
		c0.808-0.748,1.444-1.711,1.941-2.501c0.993-1.623,1.483-2.797,1.743-3.34c0.242-0.553,0.335-0.494,0.196,0.205
		c-0.156,0.692-0.316,1.578-0.645,2.716c-0.351,1.132-0.744,2.553-1.872,4.148c-1.189,1.622-3.326,2.64-4.525,4.552
		c-0.604,0.946-1.355,2.472-2.729,3.637c-1.336,1.126-2.772,1.929-4.15,2.947c-1.37,0.993-2.363,2.101-2.682,3.385
		c-0.333,1.408-0.385,3.061-0.349,4.593c0.04,1.557,0.168,3.094,0.276,4.604c0.132,1.499,0.136,3.062,0.23,4.328
		c0.1,1.345,0.251,2.704,0.247,4.091c0.036,1.349-0.262,2.959-0.751,4.116c-0.465,1.189-0.95,2.129-1.26,2.953
		c-0.323,0.82-0.454,1.501-0.576,2.257c-0.199,1.517-0.292,2.634-0.505,3.682c-0.239,1.054-0.418,2.08-1.33,3.654
		c-0.454,0.756-1.244,1.734-2.517,2.327c-0.615,0.285-1.319,0.504-2.034,0.583c-0.754,0.101-1.337,0.122-2.158,0.091
		c-0.774-0.017-1.677-0.134-2.656-0.456c-0.978-0.313-2.05-0.951-2.863-1.865c-1.641-1.849-2.283-4.223-3.02-6.578
		c-0.744-2.268-1.628-4.347-2.408-6.168c-0.406-0.905-0.788-1.756-1.146-2.554c-0.286-0.655-0.701-1.213-1.169-1.818
		c-1.901-2.314-3.396-4.378-3.596-6.029c-0.091-0.817,0.016-1.402,0.211-1.708c0.172-0.311,0.306-0.378,0.405-0.286
		c0.216,0.196,0.14,0.969,0.764,2.12c0.641,1.161,1.827,2.292,3.101,3.444c0.635,0.586,1.296,1.175,1.927,1.887
		c0.301,0.322,0.654,0.833,0.863,1.162c0.226,0.357,0.448,0.706,0.663,1.046C197.925,180.751,199.086,182.965,199.086,182.965z"/>
	<path d="M235.247,155.929c0.439-0.49,0.861-0.96,1.264-1.409c0.358-0.419,0.7-0.819,1.023-1.197
		c0.658-0.725,1.556-1.621,2.149-2.652c0.618-0.965,0.934-2.367,0.652-3.133c-0.245-0.782-0.756-1.116-1.128-1.166
		c-0.394-0.051-0.705,0.165-1,0.445c-0.171,0.143-0.336,0.301-0.543,0.446c-0.219,0.115-0.394,0.169-0.681,0.296
		c-0.545,0.256-1.356,0.586-2.742,1.401c-0.169,0.1-0.37,0.24-0.566,0.376c-0.191,0.15-0.387,0.302-0.588,0.459
		c-0.336,0.266-0.682,0.56-1.038,0.876c-0.71,0.634-1.457,1.375-2.205,2.232c-0.765,0.871-1.449,1.753-2.075,2.62
		c-0.602,0.838-1.182,1.671-1.732,2.54c-1.095,1.734-2.083,3.6-2.713,5.641c-0.649,2.028-0.87,4.189-0.735,6.215
		c0.165,2.107,0.602,3.78,1.014,5.578c0.87,3.579,2.104,7.383,4.328,11.152c2.022,3.49,4.079,7.701,4.931,12.859
		c0.217,1.281,0.185,2.532,0.268,3.948c0.077,1.348,0.184,2.654,0.085,3.862c-0.087,2.274-1.911,4.177-3.59,6.067l-1.314,1.459
		c-0.4,0.462-0.793,0.859-1.243,1.265c-0.886,0.803-1.894,1.549-2.889,2.398c-0.986,0.813-2.009,1.889-2.746,2.93
		c-0.76,1.023-1.459,2.059-2.124,3.094c-0.667,1.05-1.289,2.04-1.905,3.132c-0.636,1.114-1.156,2.298-1.532,3.517
		c-0.77,2.437-0.973,4.979-0.792,7.334c0.153,2.346,0.676,4.613,1.172,6.569c0.467,1.93,0.825,3.756,0.968,5.45
		c0.251,2.846,0.099,4.655-0.006,5.959l-0.471,5.892l2.989-3.907c1.231-1.61,1.753-3.692-2.255-2.583l2.776,2.186
		c0.732-0.758,1.48-1.989,1.912-3.598c0.441-1.607,0.556-3.541,0.338-5.655c-0.196-2.087-0.82-4.484-1.525-6.741
		c-0.64-2.207-1.278-4.605-1.326-7.231c-0.096-3.417,1.239-5.889,2.575-8.395c0.653-1.2,1.315-2.296,2.023-3.321
		c0.646-0.978,1.394-1.708,2.387-2.566c0.971-0.844,2.141-1.712,3.35-2.963c0.653-0.696,1.059-1.214,1.625-1.829
		c0.551-0.614,1.153-1.281,1.774-2.044c0.615-0.772,1.268-1.614,1.843-2.723c0.607-1.043,1-2.699,0.993-3.945
		c0.043-1.305-0.075-2.566-0.166-3.804c-0.034-0.621-0.07-1.258-0.106-1.917c-0.034-0.751-0.126-1.502-0.25-2.262
		c-0.841-4.828-2.527-9.046-4.388-13.067c-1.954-3.724-2.816-7.407-3.273-11.343c-0.115-0.974-0.209-1.951-0.29-2.931
		c-0.046-0.884-0.079-1.748,0.015-2.579c0.153-1.667,0.642-3.204,1.385-4.697c0.752-1.494,1.745-2.95,2.823-4.428
		C233.067,158.523,234.094,157.187,235.247,155.929z"/>
	<path d="M208.962,266.423c1.124-0.438,2.241-0.828,3.295-1.325c1.091-0.502,2.123-1.06,3.071-1.767
		c0.475-0.352,0.935-0.746,1.389-1.176c0.514-0.49,1.152-1.05,1.802-1.511c1.322-0.962,2.801-1.64,4.111-2.222l1.949-0.89
		c0.703-0.328,1.433-0.631,2.181-0.901c1.499-0.54,3.099-0.923,4.661-1.112c1.567-0.199,3.074-0.234,4.513-0.242
		c1.414,0.002,2.857-0.005,4.332,0.15c2.974,0.304,5.318,1.196,7.106,1.983c1.791,0.804,3.1,1.523,4.086,2.047
		c1.958,1.043,2.564,1.494,1.773,1.322c-0.781-0.191-2.058-0.175-4.113-0.505c-2.062-0.28-4.799-1.095-8.577-1.497
		c-1.886-0.177-3.835-0.074-5.619-0.009c-1.775,0.084-3.365,0.285-4.758,0.653c-1.392,0.371-2.607,0.882-3.667,1.435
		c-1.117,0.6-2.102,1.129-2.937,1.578c-1.562,0.911-1.935,1.014-3.058,1.638c-0.27,0.165-0.584,0.361-0.946,0.648
		c-0.384,0.302-0.953,0.784-1.617,1.26c-1.356,1.004-3.328,2.092-6.037,3.204c-2.607,1.06-4.693,1.894-5.487,2.668
		c-0.761,0.577-0.775,1.956-1.021,2.754c-0.48,1.623-1.012,1.289-1.256-0.284c-0.105-0.784-0.416-1.832-0.016-3.111
		c0.42-1.25,1.361-2.123,2.106-2.767c0.766-0.646,1.456-1.131,1.947-1.476C208.665,266.628,208.962,266.423,208.962,266.423z"/>
	<path d="M309.579,104.335c2.038,1.772,3.752,3.903,5.51,5.89c1.784,2.031,3.699,4.156,5.526,6.527
		c1.808,2.38,3.607,4.984,4.76,8.175c0.578,1.595,0.89,3.383,0.932,5.065c0.016,0.423,0.015,0.838,0.01,1.251l-0.016,0.619
		l-0.056,0.733c-0.112,0.986-0.423,2.008-0.901,2.906c-0.978,1.827-2.351,2.982-3.46,4.044c-1.028,1.048-2.682,2.306-3.407,3.028
		c-0.359,0.382-0.445,0.592-0.57,1.051c-0.093,0.45-0.135,1.145-0.082,1.723l0.194,2.356c0.045,0.848,0.094,1.71-0.083,2.832
		c-0.108,0.661-0.426,1.478-0.935,2.033l-0.416,0.423l-0.325,0.271c-0.212,0.17-0.406,0.303-0.6,0.435
		c-0.772,0.516-1.488,0.899-2.209,1.278l-2.116,1.05l-0.967,0.475c-0.364,0.186-0.768,0.389-1.186,0.566
		c-0.828,0.358-1.854,0.663-2.956,0.696c-1.109,0.022-2.062-0.221-2.81-0.426c-1.484-0.43-2.774-0.77-4.191-1.097
		c-5.582-1.283-10.478-1.965-14.642-3.371c-1.041-0.368-2.025-0.812-2.913-1.343c-0.9-0.535-1.666-1.195-2.256-1.743
		c-1.203-1.147-2.09-1.879-3.07-2.28c-0.804-0.354-1.898-0.302-2.778-0.541c-0.913-0.209-1.506-0.759-1.732-1.108
		c-0.43-0.749-0.309-0.682,0.321-0.018c0.351,0.316,0.869,0.531,1.445,0.575c0.579,0.061,1.203-0.035,1.92-0.062
		c1.464-0.132,3.269,0.711,5.036,1.999c3.333,2.739,9.539,2.677,18.206,4.41c1.086,0.219,2.16,0.452,3.218,0.708
		c1.054,0.243,2.132,0.578,3.015,0.767c1.676,0.443,2.911-0.37,4.849-1.352c0.872-0.435,1.709-0.859,2.498-1.3
		c0.389-0.221,0.775-0.444,1.117-0.673c0.316-0.202,0.73-0.517,0.794-0.605c0.115-0.141,0.126-0.188,0.17-0.473
		c0.044-0.303,0.048-0.692,0.036-1.079c-0.022-0.784-0.117-1.607-0.206-2.446c-0.101-0.824-0.168-1.854-0.057-2.789
		c0.085-0.958,0.456-2.099,1.101-2.951c0.64-0.845,1.305-1.373,1.843-1.848c0.55-0.474,1.034-0.905,1.477-1.349
		c0.993-0.985,1.91-1.848,2.519-2.629c0.608-0.787,0.902-1.465,1.011-2.149c0.062-0.348,0.069-0.657,0.072-1.006
		c-0.005-0.395-0.01-0.758-0.016-1.097c-0.019-0.664-0.055-1.21-0.107-1.721c-0.115-1.022-0.25-1.916-0.719-3.269
		c-0.478-1.349-1.303-3.142-3.092-5.699c-1.752-2.553-4.675-5.834-8.719-10.359c-1.002-1.084-1.983-2.009-2.992-2.834
		c-1.091-0.825-2.209-1.917-3.017-2.885c-0.846-0.994-1.554-1.968-2.18-2.888c-0.645-0.981-1.077-1.613-1.703-2.403
		c-0.578-0.762-1.14-1.503-1.584-2.369c-0.492-0.935-0.583-1.882-0.61-2.608c-0.024-1.494,0.199-2.575,0.36-3.417
		c0.362-1.66,0.617-2.319,0.841-2.164c0.236,0.161,0.367,1.226,0.363,2.957c0.011,0.86,0.048,1.794,0.232,2.685
		c0.174,0.922,0.555,1.544,1.241,2.298c0.65,0.737,1.409,1.434,2.152,2.261c0.724,0.853,1.312,1.548,1.954,2.231
		c1.247,1.345,2.442,2.357,3.32,2.94C308.854,103.818,309.619,104.359,309.579,104.335z"/>
	<path d="M46.288,200.616c5.131-0.739,9.6-2.387,12.318-4.405c2.761-1.968,3.817-3.884,3.637-4.622
		c-0.094-0.388-0.513-0.541-1.24-0.45c-0.364,0.045-0.802,0.155-1.318,0.321c-0.542,0.132-1.156,0.328-1.855,0.574
		c-1.444,0.423-3.247,0.999-5.605,1.499c-2.356,0.51-5.261,0.937-8.863,1.377c-3.693,0.45-7.234,0.828-10.822,1.609
		c-0.898,0.169-1.839,0.452-2.642,0.705c-0.803,0.254-1.598,0.509-2.386,0.76c-1.525,0.493-3.022,0.98-4.501,1.459
		c-1.452,0.447-2.869,0.84-4.29,1.164l-2.196,0.462c-0.871,0.227-1.749,0.344-2.592,0.684c-3.42,1.15-6.462,3.386-8.599,6.249
		c-2.115,2.891-3.359,6.318-3.84,9.895c-0.178,1.798-0.264,3.637-0.028,5.493c0.065,0.933,0.27,1.856,0.455,2.791
		c0.073,0.473,0.249,0.921,0.374,1.392l0.269,0.942l0.15,0.459l0.383,0.311c0.796,0.641,1.604,1.292,2.423,1.952
		c0.74,0.636,1.626,1.105,2.448,1.678c0.419,0.275,0.842,0.552,1.268,0.83c0.449,0.239,0.903,0.48,1.36,0.722
		c0.92,0.466,1.814,1.024,2.812,1.401c3.871,1.77,8.234,3.053,12.995,3.874c9.55,1.64,19.031,1.408,28.124,1.416
		c1.137,0.002,2.27,0.002,3.399,0.003l1.686,0.01l0.774,0.007c0.176-0.004,0.324,0.069,0.614,0.125
		c2.026,0.519,3.948,1.413,5.491,2.661c0.768,0.624,1.437,1.339,1.965,2.128c0.261,0.395,0.5,0.803,0.688,1.232
		c0.11,0.206,0.184,0.43,0.263,0.65l0.174,0.464l0.225,0.45c0.524,1.086,1.517,2.257,2.618,2.919
		c0.235,0.153,0.615,0.371,0.953,0.545c0.331,0.17,0.804,0.167,1.065,0.234l1.605,0.27c8.557,1.336,16.965,1.231,24.744,0.117
		c3.891-0.564,7.63-1.373,11.183-2.363c0.884-0.261,1.771-0.49,2.631-0.777l1.188-0.378l0.356-0.003
		c1.44,0.223,2.938,0.665,4.306,1.246c2.692,1.164,4.966,2.599,6.949,3.761c1.975,1.181,3.655,2.093,4.959,2.607
		c2.633,1.029,3.588,0.562,2.519-1.129c-0.532-0.854-1.527-2.042-3.116-3.62c-1.61-1.552-3.77-3.587-7.189-5.56
		c-1.709-0.966-3.774-1.884-6.205-2.434c-0.304-0.067-0.608-0.151-0.925-0.192c-0.418-0.06-0.84-0.124-1.266-0.186
		c-0.276-0.024-0.556-0.115-0.829-0.086l-0.808,0.268c-0.358,0.119-0.72,0.237-1.086,0.359c-1.061,0.366-2.178,0.698-3.335,1.061
		c-4.637,1.391-10.043,2.757-16.347,3.622c-6.753,0.925-12.176,0.775-16.975,0.268c-0.599-0.077-1.189-0.153-1.774-0.229
		c-0.537-0.065-0.411-0.031-0.901-0.316c-0.374-0.23-0.637-0.461-0.886-0.753c-0.232-0.268-0.509-0.73-0.675-1.059l-0.303-0.773
		l-0.456-0.925c-0.336-0.6-0.714-1.172-1.137-1.712c-0.85-1.072-1.867-1.994-2.984-2.767c-1.12-0.77-2.339-1.397-3.64-1.898
		c-0.649-0.254-1.322-0.466-2.015-0.651c-0.339-0.095-0.663-0.167-1.242-0.287c-0.395,0-0.794,0-1.198,0
		c-2.695,0.014-5.602,0.027-8.839,0.045c-3.224,0.024-6.761,0.059-10.711-0.058c-3.948-0.12-8.327-0.339-13.137-1.133
		c-7.642-1.299-14.815-4.079-20.18-8.876l-0.876-0.761l-0.202-0.201l-0.061-0.27l-0.121-0.504c-0.044-0.208-0.118-0.409-0.138-0.62
		l-0.184-1.26c-0.177-1.679-0.215-3.377,0.049-5.021c0.412-3.298,1.781-6.382,3.785-8.719c1.008-1.174,2.222-2.1,3.502-2.862
		c1.337-0.667,2.711-1.241,4.215-1.444l1.146-0.196l1.367-0.194c0.904-0.136,1.798-0.308,2.683-0.492
		c1.77-0.376,3.489-0.834,5.15-1.305c1.631-0.464,3.253-0.925,4.866-1.384c1.484-0.45,2.986-0.624,4.598-0.904
		C39.794,201.473,43.056,201.042,46.288,200.616z"/>
	<path d="M107.836,184.005c-0.37-0.107-0.75-0.216-1.139-0.327c-0.522-0.045-1.056-0.091-1.6-0.137
		c-1.085-0.075-2.21-0.152-3.366-0.231c-2.307-0.137-4.723-0.208-7.167-0.213c-4.886-0.002-9.846,0.407-14.196,1.307
		c-4.347,0.902-7.294,1.987-9.127,2.576c-1.794,0.653-2.52,0.679-1.926,0.301c0.611-0.342,1.218-1.327,2.655-2.444
		c1.383-1.187,3.613-2.58,7.134-3.525c3.519-0.916,6.749-1.348,9.492-1.65c2.748-0.307,5.019-0.447,6.695-0.602
		c3.36-0.246,1.885,0.367,11.815,1.011c0.645,0.081,0.811,0.183,1.113,0.243c0.278,0.073,0.549,0.144,0.813,0.214
		c0.52,0.138,1.011,0.269,1.475,0.393c0.912,0.235,1.716,0.442,2.418,0.622c1.397,0.347,2.402,0.575,3.061,0.802
		c1.322,0.418,1.207,0.997-0.249,1.252c-1.437,0.238-3.429,0.412-5.052,0.422C109.062,184.038,107.836,184.005,107.836,184.005z"/>
	<path d="M127.677,186.001c0.351-0.223,0.711-0.452,1.079-0.686c0.174-0.113,0.443-0.279,0.701-0.424l0.493-0.276
		c0.67-0.396,1.376-0.919,2.202-1.497c0.822-0.567,1.789-1.208,2.982-1.643c1.186-0.474,2.602-0.56,3.625-0.569
		c2.248-0.077,4.787,0.466,6.812,1.462c0.51,0.241,1.002,0.494,1.471,0.758c0.203,0.106,0.569,0.34,0.807,0.503l0.678,0.503
		c0.842,0.659,1.578,1.304,2.289,1.936c1.182,1.078,2.211,2.016,3.091,2.819c0.424,0.38,0.805,0.705,1.124,0.956l0.386,0.289
		l0.102,0.096l-0.009,0.062l0.073,0.357l-0.87,0.323c0.517-0.593,0.691-1.198,0.809-1.538c0.11-0.344,0.216-0.402,0.283-0.094
		c0.06,0.419,0.429,1.019,0.254,2.214l-0.017,0.12l-0.22,0.074c-0.934,0.318-1.97-0.012-3.087-0.485
		c-1.127-0.502-2.357-1.287-3.705-2.374c-4.282-4.056-8.413-4.448-10.766-3.927c-0.507,0.087-0.83,0.142-1.128,0.193
		c-0.263,0.03-0.508,0.04-0.892,0.111c-0.384,0.074-0.902,0.235-1.744,0.719c-0.424,0.243-0.926,0.573-1.569,0.999
		c-0.335,0.214-0.696,0.444-1.088,0.695c-0.21,0.122-0.426,0.247-0.652,0.378c-0.109,0.067-0.272,0.169-0.474,0.309
		c-1.586,1.126-3.082,2.027-4.412,2.472c-0.693,0.215-1.324,0.359-2.005,0.308c-0.764-0.067-1.257-0.414-1.391-0.794
		c-0.33-0.753-0.009-1.231,0.127-1.292c0.179-0.074,0.241,0.169,0.602,0.368c0.659,0.217,1.843-0.921,2.629-1.762
		C127.081,186.774,127.677,186.001,127.677,186.001z"/>
	<path d="M323.14,175.805c1.454,0.514,3.149,1.031,4.76,1.545c1.574,0.471,3.234,0.808,4.989,0.988
		c1.753,0.187,3.601,0.236,5.521,0.247c1.893,0.07,3.36-0.198,5.203-0.806c0.951-0.319,1.906-0.64,2.865-0.962
		c0.51-0.16,1.035-0.313,1.573-0.449c0.608-0.108,0.871-0.297,2.044-0.333l0.444,0.04l0.289,0.01
		c0.193,0.003,0.384-0.003,0.575-0.018c0.361-0.025,0.813-0.106,1.089-0.18l0.008-0.007l0.32-0.165l0.793-0.369l0.812-0.326
		l0.413-0.147l0.682-0.213c0.468-0.067,1.061-0.013,1.438,0.041c0.392,0.062,0.768,0.165,1.124,0.29
		c0.708,0.258,1.299,0.609,1.806,0.953c1.03,0.718,1.687,1.324,2.41,1.794c1.666,1.182,3.317,2.353,4.945,3.508l-0.178-0.119
		c1.12,0.797,2.187,1.555,3.22,2.291c0.203,0.18,0.605,0.34,0.984,0.873c0.271,0.345,0.467,0.633,0.667,0.975
		c0.193,0.333,0.363,0.677,0.504,1.03l0.165,0.452l0.009,0.053l0.003,0.01c-0.11-0.061,0.333,0.291,0.622,0.472
		c0.349,0.198,0.711,0.392,1.117,0.552c0.799,0.33,1.665,0.584,2.527,0.81c0.901,0.223,1.76,0.435,2.582,0.638
		c0.438,0.12,0.865,0.237,1.282,0.351c0.301,0.077,0.583,0.169,0.889,0.201c2.478,0.32,4.77-0.617,6.248-1.354
		c1.515-0.786,2.421-1.502,2.877-1.82c0.461-0.322,0.504-0.232,0.084,0.266c-0.866,0.932-1.983,2.696-5.052,4.339
		c-0.776,0.383-1.681,0.737-2.757,0.94c-0.534,0.107-1.118,0.165-1.738,0.141c-0.623,0-1.309-0.146-1.824-0.222
		c-1.143-0.177-2.443-0.33-3.884-0.626c-1.431-0.32-3.059-0.7-4.704-1.837c-0.333-0.222-0.843-0.706-1.205-1.073l-0.219-0.741
		l-0.15-0.371c-0.107-0.237-0.233-0.461-0.375-0.671l-0.223-0.307l-0.15-0.157c-0.235-0.16-0.465-0.318-0.691-0.473
		c-0.947-0.647-1.818-1.243-2.577-1.762l-0.113-0.076c-1.998-1.363-3.874-2.643-5.626-3.837c-0.933-0.679-1.664-1.287-2.323-1.592
		c-0.326-0.156-0.616-0.239-0.887-0.266l-0.216,0.006l-0.077,0.036l-0.271,0.104c-0.372,0.148-0.729,0.311-1.069,0.486l-0.519,0.282
		c-0.287,0.21-0.773,0.3-0.977,0.362c-0.96,0.248-1.923,0.348-2.831,0.329c-0.682-0.023-0.298-0.022-0.622,0.046
		c-0.309,0.07-0.61,0.168-0.901,0.251c-0.584,0.186-1.134,0.383-1.662,0.59c-2.789,1.089-3.86,1.478-6.612,1.627
		c-1.49,0.034-2.953-0.1-5.5-0.254c-1.258-0.1-2.752-0.228-4.527-0.539c-0.885-0.156-1.84-0.357-2.858-0.626
		c-0.507-0.134-1.036-0.291-1.568-0.456c-0.508-0.155-1.034-0.315-1.58-0.483c-2.217-0.665-4.259-1.329-6.055-2.193
		c-1.746-0.822-3.505-2.011-4.362-3.656c-0.853-1.617-0.852-3.094-0.79-4.164c0.077-1.094,0.256-1.904,0.402-2.532
		c0.571-2.484,1.135-2.065,1.22,0.598c0.043,1.301,0.143,2.844,0.732,4.045c0.572,1.223,1.641,1.898,2.834,2.373
		c1.193,0.481,2.378,0.758,3.221,0.952C322.62,175.698,323.14,175.805,323.14,175.805z"/>
	<path d="M391.893,202.83c0.081,0.921,0.247,1.588,0.617,2.331c0.358,0.722,0.893,1.37,1.605,1.904
		c1.423,1.081,3.521,1.659,5.732,1.832c1.112,0.088,2.257,0.096,3.384,0.005c1.209-0.06,2.716-0.29,4.541,0.342
		c0.9,0.311,1.788,0.959,2.351,1.635c0.585,0.674,0.955,1.341,1.258,1.917c0.577,1.15,1.047,2.081,1.405,2.441
		c0.176,0.18,0.664,0.536,1.044,0.798c0.418,0.277,0.819,0.543,1.203,0.798c0.786,0.5,1.518,0.944,2.183,1.325
		c1.326,0.758,2.415,1.293,3.121,1.509c0.709,0.189,0.803,0.229,1.04,0.017c0.175-0.186,0.268-0.194,0.221,0.115
		c-0.065,0.261-0.241,0.646-0.825,0.854c-0.556,0.22-1.329,0.292-2.253,0.23c-1.859-0.18-4.326-0.73-7.46-2.793
		c-0.977-0.681-1.531-1.587-1.986-2.348c-0.442-0.772-0.791-1.471-1.158-2.009c-0.741-1.091-1.381-1.248-2.526-1.274
		c-1.079,0.009-2.343,0.273-3.553,0.325c-1.16,0.072-2.198,0.095-3.097,0.06c-1.802-0.083-2.326-0.327-3.662-0.913
		c-0.664-0.304-1.555-0.746-2.797-1.65c-1.203-0.909-2.88-2.472-3.72-5.357c-0.63-2.702-0.507-4.765-0.051-6.501
		c0.247-0.852,0.665-1.635,1.243-2.183c0.609-0.564,1.391-0.729,1.844-0.612c0.917,0.223,1.036,0.646,0.926,0.811
		c-0.116,0.241-0.567,0.241-0.987,0.444c-0.84,0.387-0.743,2.313-0.414,3.611C391.438,201.858,391.893,202.83,391.893,202.83z"/>
	<path d="M366.795,143.191c2.286-2.241,4.756-4.881,7.472-7.183c0.675-0.589,1.364-1.17,2.069-1.744
		c0.701-0.573,1.548-1.223,2.491-1.729c0.951-0.52,2.035-0.889,3.038-1.098c1.005-0.215,1.928-0.33,2.816-0.462
		c3.493-0.486,7.226-1.451,11.399-1.314c1.04,0.054,2.099,0.145,3.16,0.398c0.53,0.101,1.056,0.278,1.581,0.438
		c0.515,0.193,1.067,0.402,1.451,0.567c1.691,0.705,3.479,1.306,5.318,1.917c1.838,0.611,3.734,1.222,5.638,1.966
		c0.951,0.369,1.904,0.77,2.848,1.22c0.935,0.449,1.737,0.825,2.667,1.239c1.819,0.83,3.72,1.631,5.634,2.905
		c1.941,1.33,3.369,2.954,4.753,4.404c1.367,1.434,2.753,2.899,3.954,3.247c1.383,0.499,3.346,0.388,5.413,0.325
		c2.076-0.034,4.507-0.169,7.001,0.97c2.29,1.086,4.041,2.728,5.488,4.576c1.415,1.861,2.467,3.916,3.249,6.036
		c0.398,1.061,0.71,2.143,0.978,3.236c0.263,1.128,0.433,1.893,0.774,2.649c0.329,0.718,0.716,1.244,1.332,1.751
		c0.596,0.51,1.421,0.981,2.287,1.44c1.93,0.999,3.761,2.112,5.538,3.059c3.48,1.925,7.31,2.944,11.404,3.916
		c2.001,0.47,4.208,1.033,6.138,1.581c1.927,0.506,4.054,0.888,6.246,1.657c2.168,0.828,3.736,1.522,5.461,1.647
		c0.886,0.082,1.757,0.038,2.909,0.016c0.578,0.009,1.168-0.029,2.073,0.177c0.441,0.097,0.955,0.318,1.374,0.59
		c0.409,0.274,0.732,0.577,0.968,0.833c0.939,1.037,1.391,1.832,1.975,2.436c0.603,0.65,1.492,1.534,2.188,2.521
		c0.713,0.987,1.27,2.099,1.695,3.082c0.424,0.981,0.796,1.882,1.202,2.655c0.295,0.572,0.933,1.318,1.606,2.226
		c0.636,0.902,1.525,2.111,1.612,3.905c0.089,1.757-0.811,3.309-1.794,4.266c-0.966,0.939-1.928,1.526-2.833,2.08
		c-0.895,0.538-1.781,1.021-2.436,1.48c-0.705,0.505-1.509,1.15-2.304,1.76c-1.587,1.253-3.562,2.546-5.68,3.252
		c-1.628,0.574-3.369,0.839-4.949,0.899c-1.592,0.064-3.026,0.01-4.443,0.007c-2.84-0.031-5.594-0.06-8.262-0.088
		c-2.655-0.031-5.227-0.059-7.711-0.088c-2.284,0.038-4.122,0.62-5.753,1.875c-0.407,0.313-0.809,0.638-1.194,1
		c-0.391,0.361-0.911,0.839-1.389,1.201c-0.981,0.772-2.021,1.389-2.994,1.92c-0.976,0.536-1.888,1-2.723,1.506
		c-0.959,0.565-1.287,0.813-2.072,1.66c-0.385,0.404-0.998,0.908-1.641,1.172c-0.624,0.27-1.275,0.407-1.865,0.449
		c-1.115,0.07-2.059,0-3.002-0.07c-1.826-0.131-3.699-0.409-5.315-0.801c-1.669-0.39-3.106-0.763-4.641-1.219
		c-1.55-0.521-2.828-1.26-3.969-1.973c-2.237-1.415-4.102-2.889-5.653-3.551c-1.583-0.579-3.26-0.33-4.577-0.428
		c-1.339-0.043-2.384-0.373-2.964-0.732l-0.195-0.119l-0.016-0.16c-0.135-1.339-0.064-1.346,0.193-0.034l0.021,0.108l0.083,0.029
		c0.174,0.064,0.483,0.213,0.871,0.309c1.193,0.327,2.556,0.177,4.046,0.091c0.749-0.036,1.549-0.045,2.378,0.126
		c0.838,0.153,1.635,0.614,2.481,1.055c1.69,0.902,3.481,2.104,5.631,3.084c1.086,0.505,2.219,0.835,3.543,1.076
		c1.299,0.265,2.666,0.538,4.103,0.751c1.43,0.23,2.938,0.309,4.546,0.349c0.79,0.012,1.621,0.016,2.368-0.089
		c0.734-0.12,1.318-0.373,1.813-0.933c0.489-0.581,1.329-1.48,2.149-1.966c0.801-0.548,1.649-1.045,2.491-1.538
		c1.728-0.987,3.216-1.971,4.696-3.532c1.592-1.552,3.833-2.962,6.376-3.367c1.252-0.237,2.535-0.256,3.717-0.256
		c1.213-0.009,2.449-0.017,3.713-0.028c2.525-0.01,5.151-0.021,7.884-0.033c2.707-0.057,5.661,0.114,8.349-0.149
		c2.706-0.299,5.078-1.48,7.239-3.211c1.13-0.847,2.175-1.793,3.532-2.628c1.256-0.773,2.468-1.418,3.42-2.181
		c0.471-0.373,0.854-0.779,1.055-1.138c0.224-0.437,0.304-0.808,0.256-1.195c-0.095-0.798-0.884-1.801-1.742-2.884
		c-0.42-0.538-0.902-1.2-1.247-1.904c-0.32-0.634-0.606-1.275-0.873-1.891c-0.532-1.243-1.014-2.303-1.715-3.231
		c-0.659-0.94-1.604-1.719-2.548-2.889c-0.435-0.559-0.791-1.05-1.152-1.465c-0.401-0.448-0.505-0.501-0.804-0.575
		c-0.802-0.14-2.201,0.02-3.531-0.024c-1.348-0.026-2.767-0.273-4.024-0.682c-1.24-0.383-2.435-0.917-3.438-1.252
		c-1.061-0.351-2.175-0.619-3.312-0.882c-1.133-0.259-2.312-0.525-3.458-0.849c-1.083-0.303-2.174-0.57-3.262-0.83
		c-4.343-1.015-8.746-1.981-12.669-3.877c-1.944-0.929-3.692-1.966-5.373-2.876c-1.584-0.895-3.542-1.655-5.202-3.281
		c-1.721-1.66-2.358-3.971-2.727-5.619c-0.382-1.571-0.89-3.051-1.516-4.394c-1.231-2.699-2.94-4.843-4.854-6.131
		c-1.018-0.688-1.76-0.995-2.659-1.159c-0.894-0.165-1.827-0.194-2.754-0.177c-1.865,0.027-3.632,0.194-5.524-0.016
		c-0.933-0.086-1.925-0.316-2.9-0.707c-0.974-0.383-1.966-1.123-2.604-1.707c-1.408-1.252-2.611-2.705-4.024-4.206
		c-0.706-0.742-1.467-1.494-2.337-2.132c-0.859-0.634-2.026-1.261-3.352-1.904c-1.314-0.638-2.906-1.338-4.54-2.161
		c-1.557-0.763-3.345-1.467-5.376-2.176c-2.028-0.718-4.304-1.428-6.797-2.383c-0.621-0.241-1.261-0.503-1.9-0.774
		c-0.535-0.221-1.095-0.415-1.69-0.566c-1.191-0.293-2.508-0.409-3.92-0.379c-2.833,0.04-5.985,0.737-9.595,1.282
		c-1.825,0.268-3.415,0.443-4.738,1.235c-1.333,0.764-2.873,2.197-4.373,3.497c-1.507,1.349-2.925,2.711-4.257,4.091
		c-1.374,1.416-2.741,2.794-4.159,4.074c-2.819,2.563-5.844,4.758-9.089,6.173c-1.717,0.727-3.044,1.128-4.443,1.806
		c-1.401,0.63-2.803,1.305-4.307,1.808c-1.652,0.574-3.283,0.581-4.686,0.549c-1.428-0.042-2.753-0.179-3.973-0.246
		c-4.774-0.259-8.935,1.098-12.592,1.639c-0.916,0.142-1.792,0.268-2.637,0.334c-0.825,0.07-1.547,0.142-2.265,0.239
		c-1.419,0.193-2.663,0.431-3.719,0.704c-2.127,0.523-3.473,1.272-3.891,1.981c-0.075,0.18-0.144,0.342-0.191,0.485l-0.034,0.36
		c-0.031,0.181-0.08,0.237-0.152,0.138c-0.033-0.101-0.254-0.347-0.195-0.793c-0.033-0.474,0.32-1.021,0.82-1.54
		c1.072-0.981,2.883-1.756,5.2-2.346c1.163-0.295,2.376-0.55,3.657-0.739c1.25-0.171,2.489-0.406,3.775-0.708
		c2.561-0.595,5.237-1.409,8.091-1.85c1.421-0.223,2.897-0.339,4.352-0.316c1.434,0.021,2.812,0.094,4.129,0.055
		c1.344-0.044,2.5-0.167,3.571-0.641c1.158-0.462,2.293-1.051,3.438-1.63c1.123-0.577,2.352-1.158,3.475-1.602
		c1.03-0.411,1.975-0.921,2.853-1.43c1.75-1.04,3.2-2.177,4.367-3.194c1.166-1.017,2.063-1.897,2.672-2.519
		C366.463,143.533,366.795,143.191,366.795,143.191z"/>
	<path d="M240.384,218.216c0.348,0.206,0.701,0.414,1.058,0.624c0.405,0.251,0.806,0.531,1.198,0.854
		c0.786,0.639,1.486,1.494,1.989,2.348c1.012,1.77,1.444,3.077,2.427,4.062c1.064,1.138,2.327,2.109,3.754,2.795
		c1.469,0.717,2.901,1.023,4.807,1.272c1.827,0.265,3.747,0.468,5.758,0.878c1.996,0.406,4.169,1.126,6.061,2.497
		c1.887,1.392,3.214,3.384,4.005,5.328c0.795,1.922,1.313,3.9,1.311,6.083c0.007,2.173-0.774,4.209-1.787,5.667
		c-0.505,0.743-1.061,1.361-1.612,1.908c-0.603,0.598-1.245,1.05-1.835,1.421c-1.205,0.73-2.372,1.212-3.515,1.464
		c-1.128,0.246-2.311,0.241-3.257-0.239c-0.951-0.478-1.397-1.303-1.515-1.846c-0.178-0.567-0.128-0.962-0.113-1.219
		c0.044-0.504,0.147-0.456,0.257,0.081c0.076,0.528,0.432,1.25,1.158,1.707c0.757,0.443,1.812,0.33,2.921-0.236
		c1.099-0.533,2.408-1.461,3.561-2.714c1.108-1.339,2.274-3.096,2.404-5.358c0.139-2.25-0.713-4.691-1.726-6.507
		c-1.033-1.858-2.573-2.999-4.245-3.634c-1.684-0.636-3.439-0.876-5.057-1.045c-1.672-0.153-3.145-0.287-4.394-0.4
		c-1.288-0.11-2.279-0.354-3.044-0.636c-0.791-0.294-1.485-0.638-2.435-1.225c-0.938-0.598-2.161-1.442-3.682-3.03
		c-0.732-0.734-1.688-1.987-2.314-3.315c-0.68-1.353-1.135-2.54-2.28-3.374c-0.535-0.411-1.324-0.828-2.027-1.213
		c-0.708-0.375-1.385-0.724-2.035-1.03c-1.294-0.622-2.458-1.121-3.482-1.525c-2.049-0.813-3.535-1.263-4.49-1.585
		c-1.923-0.557-1.697-1.16,0.552-1.2c2.21,0.017,5.147,0.476,7.494,1.081C238.604,217.542,240.384,218.216,240.384,218.216z"/>
	<path d="M110.302,494.323c3.853,0.105,7.868,0.688,10.656-1.336c1.467-1.047,3.106-2.655,4.715-4.199
		c0.821-0.787,1.668-1.592,2.574-2.374c0.449-0.392,0.917-0.779,1.403-1.152l0.74-0.552c0.262-0.194,0.425-0.299,0.996-0.679
		c0.329-0.184,0.692-0.287,1.032-0.438c0.367-0.076,0.737-0.122,1.111-0.102c0.744,0.009,1.55,0.251,1.93,0.383
		c0.899,0.316,1.602,0.662,2.283,0.997c1.268,0.646,2.5,1.275,3.703,1.889c2.36,1.171,4.294,1.808,5.736,1.794
		c1.438,0.027,2.534-0.584,3.348-1.231c0.821-0.633,1.329-1.21,1.632-1.442c0.309-0.237,0.393-0.168,0.202,0.203
		c-0.395,0.722-0.457,2.111-2.087,3.866c-0.827,0.841-2.254,1.581-4.031,1.712c-1.77,0.132-3.762-0.308-5.801-1.167
		c-1.676-0.707-3.194-1.485-4.569-2.106c-0.681-0.306-1.343-0.581-1.884-0.725c-0.401-0.103-0.542-0.081-0.732,0.079
		c-0.337,0.266-0.665,0.528-0.984,0.779c-0.362,0.301-0.706,0.608-1.036,0.913c-0.659,0.612-1.259,1.227-1.818,1.813
		c-1.128,1.227-2.088,2.276-2.884,3.142c-1.437,1.514-1.897,1.827-3.616,2.723c-0.849,0.404-2.034,0.899-3.843,1.232
		c-1.802,0.342-4.176,0.322-7.078,0.234c-2.736-0.076-5.043,0.096-6.98-0.129c-1.913-0.187-3.326-0.705-4.111-1.236l-0.612-0.414
		l0.027-0.22c0.216-1.748,0.859-1.727,1.407-0.291l-0.419-0.454l0.217,0.019c1.58,0.22,3.728-0.23,5.496-0.696
		C108.789,494.687,110.302,494.323,110.302,494.323z"/>
	<path d="M168.4,489.1c0.712,0.419,1.49,0.878,2.315,1.365c0.856,0.514,1.72,1.208,2.437,1.803c1.504,1.246,2.932,2.618,4,4.017
		c2.104,2.793,2.03,4.766,1.671,4.412c-0.361-0.361-2.171-0.096-3.965-2.011c-1.782-1.911-3.496-3.089-4.603-3.578
		c-0.552-0.244-0.626-0.433-0.834-0.78c-0.238-0.344-0.605-0.927-2.13-1.676c-1.554-0.73-2.467-1.617-2.686-2.307
		c-0.236-0.682,0.108-1.128,0.644-1.067c0.543,0.06,1.316,0.003,1.966-0.058C167.879,489.151,168.4,489.1,168.4,489.1z"/>
	<path d="M200.373,490.796c1.186,1.014,2.491,2.131,3.872,3.312c0.694,0.621,1.408,1.279,2.099,2.052
		c0.733,0.834,1.218,1.48,1.84,2.212c2.35,2.84,4.857,5.543,7.447,6.953c2.793,1.569,5.171,1.502,6.544,1.602l-0.59,0.639
		c0.587-1.05,0.944-1.296,0.848-0.827c-0.052,0.248-0.033,0.572,0.008,1.004l0.002,0.01l-0.022,0.012
		c-0.566,0.332-1.345,0.899-2.644,1.239c-1.273,0.306-3.148,0.39-5.222-0.535c-2.705-1.212-4.612-2.963-6.186-4.39
		c-1.505-1.47-2.75-2.686-3.671-3.585c-0.928-0.877-1.05-1.231-1.486-1.93c-0.473-0.73-1.34-1.901-4.251-4.194
		c-1.468-1.208-2.136-1.676-3.054-1.932c-0.942-0.27-1.818-0.48-2.311-0.748c-1.018-0.519-0.822-1.067,0.233-1.239
		c1.04-0.148,2.504-0.646,4.089-0.385c0.751,0.119,1.374,0.33,1.793,0.478C200.122,490.702,200.373,490.796,200.373,490.796z"/>
	<path d="M223.556,491.826c0.085,0.529,0.813,1.071,1.751,1.602c0.925,0.548,2.096,1.157,2.982,2.248
		c0.906,1.098,1.026,2.381,0.789,3.018c-0.22,0.665-0.553,0.837-0.602,0.684c-0.062-0.158-0.468-0.327-0.956-0.485
		c-0.511-0.167-0.979-0.301-1.463-0.756c-0.999-0.944-2.351-1.298-3.22-1.492c-0.443-0.091-0.499-0.256-0.681-0.564
		c-0.178-0.359-0.544-0.748-1.478-1.946c-0.46-0.624-0.62-1.303-0.578-1.81c0.008-0.507,0.27-0.861,0.48-1.064
		c0.458-0.402,1.023-0.303,1.244-0.058c0.196,0.273,0.669,0.507,1.033,0.581C223.261,491.86,223.556,491.826,223.556,491.826z"/>
	<path d="M134.643,376.738c-1.358-6.42-2.806-15.595-2.646-23.243c0.138-7.63,1.35-10.639,1.328-9.508
		c0.012,1.138,1.105,3.414,1.214,9.07c0.122,5.66,0.765,10.137,1.354,12.697c0.3,1.279,0.278,1.655,0.308,2.686
		c0.064,1.023,0.101,2.724,0.945,6.547c0.861,3.812,1.289,6.115,1.248,7.272c-0.035,1.152-0.492,1.121-0.98,0.076
		C136.384,380.255,134.643,376.738,134.643,376.738z"/>
	<path d="M159.167,422.553c-0.311-1.746-0.836-3.64-1.528-5.6c-0.348-0.98-0.744-1.973-1.169-2.977l-0.328-0.755l-0.093-0.15
		l-0.203-0.297c-0.28-0.392-0.6-0.767-0.951-1.129c-1.407-1.454-3.346-2.656-5.24-4.108c-0.947-0.725-1.885-1.523-2.728-2.427
		c-0.215-0.218-0.418-0.452-0.612-0.693l-0.324-0.39l-0.211-0.325l-0.11-0.199c-0.287-0.514-0.547-1.033-0.784-1.549
		c-0.947-2.073-1.456-3.874-1.867-5.328c-0.381-1.451-0.682-2.602-0.908-3.462c-0.441-1.709-0.491-2.31-0.18-1.743
		c0.3,0.567,0.986,1.306,1.869,2.709c0.908,1.387,1.868,3.484,3.185,6.313c0.327,0.688,0.725,1.408,1.058,1.956
		c0.343,0.411,0.902,1.016,1.385,1.439c1.01,0.913,2.081,1.662,3.1,2.348c2.052,1.344,3.871,2.595,5.083,3.819
		c0.615,0.624,0.916,1.045,1.222,1.55c0.238,0.443,0.235,0.576,0.327,0.813c0.07,0.225,0.147,0.469,0.237,0.76
		c0.326,1.172,1.041,3.027,2.229,7.515c1.112,4.524,0.904,7.35,0.627,8.611c-0.302,1.275-0.743,1.067-0.971-0.198
		c-0.239-1.268-0.722-2.925-1.201-4.23C159.61,423.519,159.167,422.553,159.167,422.553z"/>
	<path d="M161.921,330.282c-0.14,1.6-0.074,3.582,0.003,5.547c0.087,1.939,0.353,3.898,0.51,5.741
		c0.346,3.697-0.411,5.445-0.539,4.876c-0.1-0.565-1.465-1.437-1.95-4.287c-0.475-2.852-0.858-5.186-1.138-6.564
		c-0.289-1.358,0.282-0.765,0.28-4.749c0-3.977,1.416-4.737,1.7-3.599C161.071,328.383,161.921,330.282,161.921,330.282z"/>
	<path d="M181.486,408.429c0.48,1.788,1.335,3.663,2.566,5.423c0.623,0.871,1.321,1.729,2.129,2.513
		c0.387,0.407,0.825,0.772,1.251,1.15c0.455,0.394,0.974,0.825,1.449,1.279c0.966,0.902,1.913,1.968,2.65,3.159
		c0.748,1.186,1.292,2.418,1.774,3.601c0.94,2.346,1.788,4.716,2.314,7.107c0.13,0.586,0.242,1.164,0.321,1.796
		c0.062,0.591,0.093,1.141,0.105,1.65c0.012,0.981,0.022,1.877,0.033,2.69c0.021,1.573,0.169,2.728,0.419,3.542
		c0.246,0.813,0.574,1.289,0.719,1.549c0.143,0.266,0.089,0.311-0.171,0.091c-0.488-0.409-1.477-1.036-2.21-2.766
		c-0.368-0.844-0.666-1.918-0.876-3.19c-0.234-1.279-0.311-2.736-0.706-4.302c-0.799-3.276-2.045-6.222-3.156-8.541
		c-1.119-2.303-2.573-3.615-3.817-4.556c-0.603-0.444-1.026-0.784-1.41-1.159c-0.381-0.347-0.676-0.718-1.116-1.246
		c-0.433-0.533-0.993-1.248-1.777-2.384c-0.752-1.153-1.765-2.736-2.7-5.153c-0.925-2.422-1.224-4.476-1.289-6.04
		c-0.053-1.571,0.08-2.669,0.265-3.355c0.364-1.368,0.794-1.107,0.961,0.265c0.184,1.377,0.655,3.169,1.195,4.538
		C180.93,407.469,181.486,408.429,181.486,408.429z"/>
	<path d="M183.976,263.899c0.646-0.918,1.102-2.107,1.442-3.417c0.249-1.346,0.413-2.797,0.365-4.323
		c-0.04-3.044-0.553-6.26-0.805-9.275c-0.272-3.015-0.112-5.23,0.166-6.511c0.283-1.286,0.556-1.65,0.568-1.198
		c0.027,0.94,1.153,2.638,1.757,7.08c0.617,4.472,1.248,8.127,1.428,10.375c0.116,1.119-0.022,1.452-0.186,2.319
		c-0.294,0.853-0.368,2.346-1.822,5.517c-0.339,0.803-0.882,1.406-1.268,1.982c-0.436,0.545-0.935,0.928-1.327,1.28
		c-0.803,0.7-1.571,0.911-2.014,1.064c-0.933,0.246-1.019-0.225-0.427-0.88c0.291-0.339,0.645-0.712,0.927-1.148
		c0.239-0.452,0.484-0.916,0.703-1.332c0.21-0.404,0.276-0.83,0.37-1.095C183.929,264.065,183.976,263.899,183.976,263.899z"/>
	<path d="M167.161,284.863c0.273-1.791,0.74-3.922,1.684-5.956c0.918-2.037,2.271-3.96,3.842-5.309
		c1.568-1.36,2.947-1.906,3.798-2.102c0.858-0.196,1.201-0.086,0.963,0.076c-0.473,0.358-0.871,1.815-2.822,3.699
		c-1.977,1.937-2.841,4.022-3.092,5.227c-0.134,0.608-0.235,0.742-0.524,1.145c-0.234,0.414-0.715,1.109-0.968,2.934
		c-0.217,1.813-0.375,2.936-0.701,3.525c-0.32,0.586-0.747,0.588-0.961,0.014c-0.239-0.566-0.555-1.348-0.816-2.025
		C167.337,285.401,167.161,284.863,167.161,284.863z"/>
	<path d="M113.336,306.647c-3.033-0.279-7.137-0.495-7.18,0.418c-0.064,0.873,0.239,2.932,0.59,3.781
		c0.153,0.426,0.87,1.457,1.819,2.296c0.93,0.865,1.989,1.554,2.548,2.155c0.561,0.617,1.593,1.083,2.557,1.366
		c0.963,0.32,1.851,0.493,2.306,0.969c1.398,1.282,2.008-3.582,0.642-2.57c-0.608,0.378-1.649,0.237-2.454-0.251
		c-0.817-0.466-1.371-1.181-1.396-1.528c-0.032-0.356-0.736-1.153-1.133-2.066c-0.438-0.897-0.512-1.841-0.304-2.054
		c0.444-0.423-0.116-1.406,0.954-1.824c0.49-0.186,0.775-0.349,0.912-0.476L113.336,306.647z"/>
	<path d="M108.264,325.442c0.194-1.162,0.263-2.583,0.497-4.051c0.231-1.464,0.608-2.956,1.194-4.177
		c1.18-2.434,2.641-2.949,2.491-2.595c-0.137,0.366,0.608,1.511-0.042,3.321c-0.652,1.817-0.743,3.355-0.625,4.245
		c0.154,0.897-0.442,0.406-0.669,3.015c-0.105,2.599-1.421,3.207-1.741,2.415C109.054,326.841,108.264,325.442,108.264,325.442z"/>
	<path d="M142.088,297.704c2.001-0.978,4.28-2.403,5.199-4.505c0.993-2.178,1.067-5.052,1.363-7.712
		c0.266-2.685,0.849-4.665,1.424-5.722c0.583-1.064,0.957-1.282,0.846-0.894c-0.244,0.839,0.471,2.52,0.29,6.49
		c-0.107,2.013-0.153,3.878-0.359,5.517c-0.191,1.638-0.565,3.051-0.985,4.092c-0.423,1.04-0.736,1.291-1.378,1.863
		c-0.665,0.548-1.762,1.459-4.288,2.924c-2.53,1.428-4.076,1.875-4.915,1.999c-0.839,0.101-1.001-0.302-0.39-0.892
		c0.6-0.581,1.409-1.366,2.073-2.009C141.599,298.206,142.088,297.704,142.088,297.704z"/>
	<path d="M149.785,296.303c-0.243,1.348,0.016,3.417-0.862,4.904c-0.883,1.463-2.24,1.349-2.105,1.165
		c0.107-0.208-0.659-1.1-0.306-2.001c0.357-0.942,0.237-1.798,0.026-2.274c-0.239-0.481,0.366-0.198,0.414-1.578
		c-0.016-1.332,1.293-1.825,1.635-1.408C148.924,295.514,149.785,296.303,149.785,296.303z"/>
	<path d="M175.788,205.251c-0.614,4.087-0.082,9.949-0.316,14.854c-0.24,4.916-1.383,6.894-1.381,6.153
		c-0.002-0.741-1.136-2.205-1.167-5.89c-0.031-3.687-0.302-6.647-0.548-8.389c-0.222-1.744,0.242-0.983,0.536-6.191
		c0.402-5.237,2.054-6.004,2.123-4.512C175.122,202.769,175.788,205.251,175.788,205.251z"/>
	<path d="M202.233,190.165c0.69,1.287,2.466,2.726,3.339,5.368c0.729,2.439,0.694,4.589,0.712,6.335
		c-0.015,1.741-0.1,2.642-0.046,3.343c0.071,0.677,0.138,1.165-0.092,0.985c-0.199-0.165-0.788-0.113-1.518-0.648
		c-0.736-0.507-1.46-1.623-1.62-3.147c-0.159-1.513-0.27-2.788-0.507-3.809c-0.224-1.023-0.563-1.743-0.876-2.142
		c-0.327-0.34-0.278-0.483-0.358-0.904c-0.085-0.433-0.264-1.079-1.571-2.652c-1.376-1.628-1.617-3.346-1.264-4.036
		c0.315-0.725,0.901-0.689,1.217-0.263C200.311,189.535,202.233,190.165,202.233,190.165z"/>
	<path d="M183.717,322.231c0.339-1.423,0.88-2.836,1.432-4.268c0.266-0.698,0.54-1.413,0.818-2.142
		c0.256-0.746,0.516-1.504,0.78-2.267c1.133-3.169,2.797-6.281,4.698-8.771c1.904-2.492,3.578-3.912,4.629-4.675
		c1.061-0.756,1.522-0.854,1.226-0.509c-0.574,0.711-0.993,2.762-3.585,6.387c-2.585,3.664-3.765,7.064-4.199,9.062
		c-0.21,0.978-0.394,1.327-0.802,2.075c-0.364,0.76-1.182,1.994-2.033,4.835c-0.748,2.807-0.443,4.354-0.471,5.285
		c-0.002,0.902-0.406,1.04-0.957,0.213c-0.516-0.816-1.074-2.083-1.285-3.214C183.737,323.122,183.717,322.231,183.717,322.231z"/>
	<path d="M209.375,295.337c1.641-0.113,3.659-0.877,5.232-0.974c1.507-0.077,2.537,0.517,2.356,0.645
		c-0.194,0.089-0.238,1.435-1.655,1.81c-1.356,0.327-2.361,0.741-2.919,1.122c-0.537,0.387-0.418-0.248-2.117,0.098
		c-1.572,0.378-2.404-0.707-2.022-1.181C208.647,296.386,209.375,295.337,209.375,295.337z"/>
	<path d="M187.747,354.792c0.325-1.531,0.603-3.386,1.152-5.285c0.537-1.892,1.349-3.843,2.54-5.354
		c1.193-1.516,2.448-2.2,3.225-2.449c0.791-0.249,1.118-0.153,0.919,0.014c-0.408,0.38-0.549,1.775-1.931,3.726
		c-1.383,2.049-1.795,4.074-1.859,5.234c0.001,1.189-0.587,0.504-1.165,3.96c-0.236,1.727-0.598,2.752-1.002,3.24
		c-0.402,0.485-0.825,0.407-0.952-0.129C188.385,356.698,187.747,354.792,187.747,354.792z"/>
	<path d="M165.545,473.206c2.174-0.021,4.665,0.192,7.119,1.162c2.448,0.961,4.751,2.668,6.504,4.806
		c0.419,0.547,0.827,1.095,1.23,1.669c0.37,0.629,0.756,1.27,1.015,1.896c0.592,1.262,1.011,2.499,1.439,3.725
		c0.823,2.444,1.526,4.806,2.334,6.947c0.798,2.138,1.622,3.836,2.526,4.981c0.194,0.337,0.466,0.514,0.676,0.77
		c0.211,0.256,0.434,0.459,0.673,0.598c0.231,0.168,0.448,0.327,0.65,0.474c0.229,0.098,0.442,0.189,0.638,0.273
		c0.392,0.22,0.756,0.292,1.054,0.349c0.296,0.069,0.522,0.134,0.673,0.189c0.302,0.112,0.288,0.18-0.064,0.182
		c-0.349-0.014-0.787,0.105-1.379,0.151c-0.577-0.046-1.367,0.009-2.258-0.387c-0.923-0.309-1.895-1.019-2.85-2.039
		c-0.897-1.048-1.801-2.417-2.497-4.122c-1.44-3.393-2.332-6.507-3.36-8.996c-0.521-1.215-1.012-2.348-1.579-3.121
		c-0.575-0.803-1.184-1.544-1.745-2.037c-0.537-0.54-0.905-0.842-1.221-1.145c-0.301-0.323-0.588-0.593-1.031-0.978
		c-0.211-0.204-0.474-0.421-0.826-0.639c-0.338-0.242-0.75-0.509-1.296-0.753c-1.067-0.512-2.629-1.069-4.961-1.136
		c-2.329-0.064-4.23,0.225-5.71,0.426c-1.482,0.208-2.554,0.373-3.255,0.407c-1.41,0.072-1.351-0.397-0.022-1.002
		c1.327-0.584,3.121-1.399,4.687-1.884c0.773-0.266,1.488-0.438,1.999-0.588C165.229,473.275,165.545,473.206,165.545,473.206z"/>
	<path d="M228.285,497.534c1.009,1.428,3.168,2.638,4.56,4.036c1.385,1.392,1.53,2.728,1.265,2.585
		c-0.247-0.162-1.416,0.479-2.719-0.487c-1.274-0.962-2.408-1.586-3.156-1.879c-0.737-0.301-0.148-0.479-1.736-2.033
		c-1.573-1.593-0.779-2.872-0.157-2.606C226.97,497.413,228.285,497.534,228.285,497.534z"/>
	<path d="M218.496,474.041c-0.758-2.293-2.078-4.964-2.855-8.156c-0.424-1.545-0.472-3.469-0.566-4.691
		c-0.067-0.586-0.2-0.966-0.48-1.459c-0.286-0.49-0.676-1.016-1.017-1.356c-0.744-0.761-1.775-1.313-2.674-2.001
		c-0.911-0.648-1.588-1.574-1.77-2.286c-0.209-0.717-0.111-1.174-0.046-1.384c0.066-0.211,0.142-0.199,0.19,0.016
		c0.077,0.423,0.542,1.074,1.433,1.507c0.443,0.227,0.993,0.406,1.709,0.66c0.706,0.259,1.628,0.598,2.601,1.361
		c0.975,0.832,1.641,1.679,2.18,2.7c0.554,1.042,0.654,2.191,0.733,2.989c0.144,1.624,0.474,2.766,0.829,3.646
		c0.365,0.863,0.37,1.133,0.497,1.875c0.129,0.746,0.389,1.951,1.533,4.711c1.158,2.767,1.438,4.66,1.294,5.567
		c-0.134,0.911-0.59,0.868-0.965,0.108C220.365,476.317,218.496,474.041,218.496,474.041z"/>
	<path d="M144.986,467.862c1.568-0.849,2.79-3.362,4.08-5.125c1.301-1.77,2.584-2.276,2.488-1.954
		c-0.126,0.304,0.69,1.446-0.202,3.094c-0.896,1.604-1.531,2.958-1.876,3.829c-0.393,0.847-0.437,0.287-2.436,2.131
		c-1.075,0.899-2.089,0.981-2.571,0.748c-0.485-0.216-0.531-0.656-0.296-0.914c0.251-0.246,0.48-0.717,0.615-1.098
		C144.924,468.17,144.986,467.862,144.986,467.862z"/>
	<path d="M348.121,231.441l-0.033,0.167l0.095-0.043l0.04-0.077l0.01-0.034l0.29-0.236c0.844-0.694,1.707-1.442,2.605-2.047
		c2.184-1.492,3.767-1.289,3.444-1.031c-0.32,0.254-0.191,1.617-1.7,2.898c-0.76,0.639-1.409,1.268-1.958,1.831
		c-0.579,0.574-0.842,0.978-1.717,1.714c-0.597,0.543-0.89,0.626-1.318,0.791c-0.215,0.07-0.465,0.15-0.817,0.285
		c-0.18,0.074-0.385,0.158-0.624,0.256c-0.229,0.093-0.268,0.043-0.629,0.174c0.016-0.499,0.05-1.598-0.009-2.547
		c-0.018-0.38-0.138-0.645-0.231-0.901l-0.132-0.363c-0.085-0.242-0.153-0.478-0.201-0.703c-0.095-0.449-0.083-0.842,0.011-1.107
		c0.197-0.538,0.632-0.586,0.905-0.321c0.284,0.277,0.779,0.564,1.215,0.84C347.805,231.26,348.176,231.558,348.121,231.441z"/>
	<path d="M403.819,224.449c1.664,0.115,3.659,0,5.633-0.33c1.978-0.333,3.913-0.875,5.658-1.47c1.747-0.584,3.059-0.968,3.899-1.136
		c0.84-0.163,1.217-0.069,0.966,0.093c-0.504,0.277-0.813,2.049-3.699,3.319c-2.862,1.219-5.297,1.86-6.706,2.32
		c-1.408,0.402-0.881-0.098-5.112,0.029c-4.208,0.04-4.974-1.404-3.792-1.679C401.86,225.315,403.819,224.449,403.819,224.449z"/>
	<path d="M401.311,214.04c-0.419,1.293-0.285,3.092-0.786,4.325c-0.254,0.605-0.603,0.932-0.906,1.012l-0.361,0.16l-0.081,0.062
		l-0.06,0.093c-0.002,0.028-0.385-0.012-0.672-0.337c-0.302-0.311-0.542-0.792-0.447-1.342c0.19-1.102,0.104-1.965-0.084-2.496
		c-0.198-0.517,0.355-0.23,0.56-1.593c0.082-0.662,0.423-0.971,0.8-1.181c0.381-0.21,0.802-0.251,0.956-0.021
		C400.557,213.161,401.311,214.04,401.311,214.04z"/>
	<path d="M403.025,217.604c1.904,0.208,4.323-0.089,5.585-0.364c0.616-0.115,1.143-0.186,1.598-0.323
		c0.443-0.119,0.783-0.129,0.702,0.003c-0.085,0.119,0.084,0.454,0.047,0.966c-0.043,0.479-0.347,1.26-1.236,1.645
		c-1.721,0.708-3.036,0.871-3.78,1.193c-0.723,0.29-0.486-0.303-2.507-0.296c-0.969,0.027-1.464-0.217-1.831-0.502
		c-0.37-0.299-0.52-0.694-0.229-0.93C401.911,218.507,403.025,217.604,403.025,217.604z"/>
	<path d="M390.242,216.24c1.062-0.818,1.397-2.742,2.092-4.148c0.708-1.43,1.897-1.939,1.863-1.679
		c-0.057,0.244,0.986,0.995,0.603,2.327c-0.387,1.308-0.583,2.43-0.647,3.166c-0.1,0.718-0.357,0.258-1.532,1.891
		c-1.346,1.617-2.611,0.651-2.403,0.127C390.416,217.371,390.242,216.24,390.242,216.24z"/>
	<path d="M117.81,129.127c0.232-0.926,0.575-1.717,0.961-2.545c0.364-0.795,0.888-1.719,1.49-2.491
		c1.184-1.519,2.406-2.743,2.994-3.749c0.526-0.773,0.858-2.406,1.566-3.017c0.662-0.626,1.047-0.525,0.884-0.339
		c-0.156,0.212-0.12,0.705,0.021,1.308c0.084,0.598,0.486,1.424-0.071,2.93c-0.598,1.362-1.383,2.277-1.938,3.08
		c-0.574,0.789-0.969,1.434-1.17,1.921c-0.198,0.487-0.311,0.53-0.603,0.799c-0.256,0.259-0.834,0.83-1.257,2.208
		c-0.099,0.339-0.133,0.587-0.178,0.766l-0.12,0.213c-0.134,0.074,0.067,0.407,0.268,0.566c0.377,0.398,0.441,0.823-0.165,0.951
		c-0.292,0.041-0.693,0.094-1.174-0.104c-0.472-0.193-0.882-0.68-1.061-1.084C117.864,129.701,117.81,129.127,117.81,129.127z"/>
	<path d="M130.013,122.777c-0.824,1.195-1.262,2.882-0.872,4.585c0.333,1.715,1.301,3.448,2.195,5.102
		c1.843,3.308,2.021,5.248,1.629,4.776c-0.337-0.492-2.005-0.695-3.677-3.243c-1.677-2.518-2.819-4.867-3.281-6.464
		c-0.193-0.798-0.173-1.054-0.028-1.688c0.187-0.615,0.248-1.725,1.239-3.847c1.052-2.099,2.307-2.781,2.951-2.97
		c0.668-0.18,0.899,0.202,0.632,0.731c-0.28,0.526-0.547,1.287-0.652,1.921C129.992,122.295,130.013,122.777,130.013,122.777z"/>
</g>
</svg>
